<svg width="403" height="102" viewBox="0 0 403 102" fill="none" xmlns="http://www.w3.org/2000/svg">
<path fill-rule="evenodd" clip-rule="evenodd" d="M46.9317 4.46906C46.4998 4.90455 45.9112 5.23985 45.0123 5.36298C44.0572 5.49381 43.3545 5.33659 42.7808 5.04051C42.2349 4.75883 41.808 4.35229 41.3947 3.95868C41.3752 3.94008 41.3557 3.92152 41.3362 3.90299C40.9026 3.49063 40.4786 3.09987 39.9359 2.87133C39.3954 2.64375 38.7325 2.57542 37.8195 2.81962C36.9627 3.0488 36.4708 3.42486 36.16 3.87803C35.8475 4.33367 35.7148 4.87151 35.5852 5.43403C35.5795 5.45855 35.5739 5.48312 35.5682 5.50773C35.4448 6.04476 35.3171 6.60065 35.0273 7.10752C34.7228 7.63995 34.241 8.11617 33.4046 8.46776C32.5159 8.84134 31.7965 8.87133 31.1657 8.73384C30.5655 8.60302 30.0479 8.32083 29.5468 8.04761C29.5231 8.03471 29.4995 8.02182 29.4759 8.00897C28.9503 7.72288 28.4396 7.45517 27.8563 7.37489C27.2753 7.29495 26.6173 7.40052 25.7986 7.87271C25.0303 8.31583 24.6525 8.80638 24.4696 9.32455C24.2857 9.84553 24.2967 10.3994 24.3171 10.9763C24.318 11.0015 24.3189 11.0266 24.3198 11.0519C24.3396 11.6025 24.3601 12.1726 24.2113 12.7372C24.055 13.3303 23.7129 13.915 22.996 14.471C22.2342 15.0619 21.5471 15.2771 20.9022 15.3075C20.2887 15.3365 19.7157 15.1979 19.1609 15.0637C19.1347 15.0573 19.1086 15.051 19.0824 15.0447C18.5007 14.9044 17.9382 14.778 17.3539 14.8514C16.772 14.9246 16.1637 15.1969 15.4952 15.8648C14.8677 16.4917 14.6298 17.0633 14.5872 17.6112C14.5444 18.162 14.6984 18.6942 14.8674 19.2461C14.8748 19.2702 14.8822 19.2943 14.8896 19.3184C15.0512 19.8452 15.2186 20.3905 15.221 20.9744C15.2235 21.5877 15.0444 22.241 14.4958 22.9637C13.913 23.7316 13.3049 24.1173 12.6899 24.3136C12.1048 24.5004 11.5154 24.5148 10.9449 24.5287C10.9179 24.5294 10.891 24.5301 10.8641 24.5307C10.2659 24.5458 9.68977 24.5692 9.14441 24.7914C8.60131 25.0127 8.08422 25.4331 7.61132 26.2514C7.16753 27.0193 7.08562 27.633 7.18631 28.1732C7.28755 28.7163 7.57401 29.1905 7.88011 29.6799C7.89345 29.7012 7.90682 29.7226 7.92022 29.744C8.21271 30.211 8.51548 30.6944 8.66893 31.2578C8.83012 31.8495 8.82619 32.527 8.48337 33.367C8.11911 34.2596 7.63162 34.7895 7.08835 35.1383C6.5715 35.4702 6.00599 35.6366 5.45845 35.7978C5.43257 35.8054 5.40673 35.813 5.38094 35.8206C4.80702 35.9899 4.25661 36.1617 3.78733 36.5175C3.32 36.8717 2.92936 37.4117 2.68435 38.3245C2.45442 39.1811 2.53415 39.7951 2.77123 40.2908C3.00959 40.7892 3.40901 41.1731 3.83135 41.5666C3.84975 41.5838 3.8682 41.6009 3.88667 41.6181C4.29007 41.9935 4.70764 42.3821 5.00167 42.8865C5.31054 43.4165 5.48206 44.0718 5.36834 44.9719C5.24751 45.9284 4.91379 46.5664 4.47931 47.0439C4.06596 47.4983 3.56279 47.8054 3.07562 48.1028C3.05259 48.1168 3.0296 48.1309 3.00666 48.1449C2.49613 48.457 2.00894 48.7654 1.64773 49.2305C1.28801 49.6936 1.05043 50.3163 1.05001 51.2614C1.04962 52.1483 1.28556 52.7208 1.64286 53.1383C2.0021 53.558 2.48726 53.8254 2.99706 54.0962C3.01929 54.108 3.04156 54.1198 3.06386 54.1317C3.55066 54.3898 4.05455 54.6571 4.46913 55.0682C4.90461 55.5002 5.23991 56.0888 5.36304 56.9877C5.49387 57.9428 5.33665 58.6455 5.04057 59.2192C4.75889 59.765 4.35236 60.1919 3.95874 60.6053C3.94015 60.6248 3.92158 60.6443 3.90305 60.6638C3.49069 61.0974 3.09993 61.5214 2.8714 62.0641C2.64381 62.6046 2.57548 63.2675 2.81969 64.1805C3.04886 65.0373 3.42492 65.5292 3.8781 65.84C4.33373 66.1524 4.87158 66.2852 5.43409 66.4148C5.45861 66.4204 5.48318 66.4261 5.50779 66.4317C6.04482 66.5551 6.60072 66.6829 7.10758 66.9727C7.64002 67.2772 8.11624 67.759 8.46783 68.5954C8.8414 69.4841 8.8714 70.2035 8.7339 70.8343C8.60309 71.4344 8.3209 71.952 8.04767 72.4532C8.03477 72.4768 8.02188 72.5005 8.00903 72.5241C7.72295 73.0496 7.45523 73.5603 7.37495 74.1437C7.29501 74.7247 7.40058 75.3827 7.87277 76.2014C8.31589 76.9697 8.80644 77.3475 9.32462 77.5303C9.84559 77.7142 10.3995 77.7032 10.9764 77.6829C11.0015 77.682 11.0267 77.6811 11.0519 77.6802C11.6026 77.6604 12.1726 77.6398 12.7372 77.7886C13.3303 77.9449 13.915 78.2871 14.4711 79.004C15.062 79.7657 15.2771 80.4528 15.3076 81.0977C15.3366 81.7113 15.1979 82.2843 15.0637 82.839C15.0574 82.8652 15.0511 82.8914 15.0448 82.9175C14.9045 83.4992 14.778 84.0618 14.8515 84.6461C14.9246 85.2279 15.1969 85.8362 15.8649 86.5048C16.4918 87.1322 17.0634 87.3702 17.6112 87.4127C18.1621 87.4555 18.6942 87.3015 19.2462 87.1325L19.3185 87.1104C19.8453 86.9487 20.3906 86.7814 20.9744 86.779C21.5878 86.7764 22.2411 86.9556 22.9638 87.5041C23.7317 88.087 24.1173 88.695 24.3137 89.3101C24.5004 89.8952 24.5149 90.4845 24.5288 91.0551C24.5295 91.0821 24.5301 91.109 24.5308 91.1359C24.5458 91.7341 24.5693 92.3102 24.7915 92.8556C25.0127 93.3987 25.4332 93.9157 26.2514 94.3886C27.0193 94.8324 27.6331 94.9143 28.1733 94.8137C28.7164 94.7124 29.1906 94.426 29.68 94.1199C29.7013 94.1065 29.7227 94.0931 29.744 94.0798C30.211 93.7873 30.6944 93.4845 31.2578 93.331C31.8496 93.1698 32.527 93.1738 33.3671 93.5166C34.2596 93.8809 34.7895 94.3683 35.1384 94.9116C35.4702 95.4285 35.6367 95.994 35.7978 96.5415L35.8207 96.619C35.99 97.1929 36.1618 97.7433 36.5175 98.2126C36.8718 98.68 37.4118 99.0706 38.3245 99.3156C39.1811 99.5455 39.7952 99.4658 40.2909 99.2287C40.7893 98.9904 41.1732 98.591 41.5667 98.1686C41.5839 98.1502 41.601 98.1317 41.6182 98.1133C41.9936 97.7099 42.3822 97.2923 42.8866 96.9983C43.4165 96.6894 44.0719 96.5179 44.972 96.6316C45.9284 96.7524 46.5665 97.0862 47.044 97.5207C47.4983 97.934 47.8055 98.4372 48.1029 98.9244C48.1169 98.9474 48.1309 98.9704 48.145 98.9933C48.4571 99.5038 48.7655 99.991 49.2306 100.352C49.6937 100.712 50.3164 100.95 51.2615 100.95C52.1484 100.95 52.7208 100.714 53.1383 100.357C53.5581 99.9979 53.8255 99.5127 54.0963 99.0029C54.1081 98.9807 54.1199 98.9584 54.1317 98.9361C54.3899 98.4493 54.6571 97.9454 55.0683 97.5308C55.5002 97.0954 56.0888 96.7601 56.9878 96.6369C57.9429 96.5061 58.6455 96.6633 59.2192 96.9594C59.7651 97.2411 60.192 97.6476 60.6053 98.0412L60.6638 98.0969C61.0975 98.5093 61.5214 98.9 62.0642 99.1286C62.6046 99.3561 63.2676 99.4245 64.1806 99.1803C65.0374 98.9511 65.5293 98.575 65.84 98.1219C66.1525 97.6662 66.2852 97.1284 66.4149 96.5659L66.4318 96.4922C66.5552 95.9551 66.6829 95.3992 66.9728 94.8924C67.2773 94.3599 67.759 93.8837 68.5955 93.5321C69.4842 93.1586 70.2036 93.1286 70.8344 93.2661C71.4345 93.3969 71.9521 93.6791 72.4532 93.9523L72.5242 93.9909C73.0497 94.277 73.5604 94.5447 74.1438 94.625C74.7247 94.7049 75.3828 94.5994 76.2014 94.1272C76.9697 93.6841 77.3475 93.1935 77.5304 92.6753C77.7143 92.1544 77.7033 91.6005 77.6829 91.0236C77.6821 90.9985 77.6811 90.9733 77.6802 90.948C77.6604 90.3974 77.6399 89.8273 77.7887 89.2627C77.945 88.6696 78.2871 88.0849 79.004 87.5289C79.7658 86.938 80.4529 86.7228 81.0978 86.6924C81.7113 86.6634 82.2843 86.802 82.8391 86.9362L82.9176 86.9552C83.4993 87.0955 84.0619 87.2219 84.6462 87.1485C85.228 87.0753 85.8363 86.803 86.5049 86.1351C87.1323 85.5082 87.3703 84.9366 87.4128 84.3887C87.4556 83.8379 87.3016 83.3057 87.1326 82.7538C87.1253 82.7297 87.1179 82.7056 87.1105 82.6815C86.9488 82.1547 86.7815 81.6094 86.7791 81.0255C86.7765 80.4122 86.9557 79.7589 87.5042 79.0362C88.0871 78.2683 88.6951 77.8826 89.3101 77.6863C89.8953 77.4995 90.4846 77.4851 91.0553 77.4712C91.0822 77.4705 91.1091 77.4698 91.136 77.4692C91.7341 77.4541 92.3103 77.4307 92.8556 77.2085C93.3987 76.9872 93.9158 76.5668 94.3887 75.7485C94.8325 74.9806 94.9144 74.3669 94.8137 73.8267C94.7125 73.2836 94.426 72.8094 94.1199 72.32L94.0798 72.256C93.7873 71.7889 93.4846 71.3055 93.3311 70.7421C93.1699 70.1504 93.1738 69.4729 93.5167 68.6329C93.8809 67.7403 94.3684 67.2104 94.9117 66.8616C95.4285 66.5297 95.9941 66.3633 96.5416 66.2021C96.5675 66.1945 96.5933 66.1869 96.6191 66.1793C97.193 66.01 97.7434 65.8382 98.2127 65.4824C98.68 65.1282 99.0707 64.5882 99.3157 63.6754C99.5456 62.8188 99.4659 62.2048 99.2288 61.7091C98.9904 61.2107 98.591 60.8268 98.1687 60.4333L98.1134 60.3818C97.71 60.0064 97.2924 59.6178 96.9984 59.1133C96.6895 58.5835 96.518 57.9281 96.6317 57.028C96.7525 56.0715 97.0862 55.4335 97.5207 54.956C97.9341 54.5016 98.4372 54.1945 98.9244 53.8971C98.9474 53.8831 98.9704 53.869 98.9934 53.855C99.5039 53.5429 99.9911 53.2345 100.352 52.7694C100.712 52.3063 100.95 51.6836 100.95 50.7385C100.95 49.8516 100.714 49.2791 100.357 48.8616C99.9979 48.4419 99.5128 48.1745 99.003 47.9037C98.9807 47.8919 98.9585 47.8801 98.9362 47.8682C98.4494 47.6101 97.9455 47.3428 97.5309 46.9316C97.0954 46.4997 96.7601 45.9111 96.637 45.0122C96.5062 44.0571 96.6634 43.3544 96.9595 42.7807C97.2411 42.2349 97.6477 41.808 98.0413 41.3947C98.0599 41.3751 98.0785 41.3556 98.097 41.3361C98.5093 40.9025 98.9001 40.4785 99.1286 39.9358C99.3562 39.3953 99.4246 38.7324 99.1804 37.8194C98.9512 36.9626 98.5751 36.4707 98.1219 36.1599C97.6663 35.8475 97.1285 35.7147 96.5659 35.5851L96.4922 35.5682C95.9552 35.4448 95.3993 35.317 94.8924 35.0272C94.36 34.7227 93.8838 34.2409 93.5322 33.4045C93.1586 32.5158 93.1286 31.7964 93.2661 31.1656C93.3969 30.5655 93.6791 30.0479 93.9523 29.5468C93.9653 29.5231 93.9781 29.4994 93.991 29.4758C94.2771 28.9503 94.5448 28.4396 94.6251 27.8562C94.705 27.2752 94.5994 26.6172 94.1273 25.7985C93.6841 25.0302 93.1936 24.6524 92.6754 24.4695C92.1544 24.2857 91.6006 24.2966 91.0237 24.317L90.9481 24.3197C90.3974 24.3395 89.8274 24.36 89.2628 24.2113C88.6697 24.055 88.085 23.7128 87.5289 22.9959C86.9381 22.2342 86.7229 21.5471 86.6924 20.9022C86.6635 20.2886 86.8021 19.7157 86.9363 19.1609C86.9426 19.1347 86.949 19.1085 86.9553 19.0824C87.0956 18.5007 87.222 17.9381 87.1486 17.3538C87.0754 16.772 86.8031 16.1637 86.1351 15.4951C85.5083 14.8677 84.9366 14.6297 84.3888 14.5872C83.838 14.5444 83.3058 14.6983 82.7538 14.8673C82.7298 14.8747 82.7057 14.8821 82.6816 14.8895C82.1548 15.0512 81.6095 15.2185 81.0256 15.2209C80.4123 15.2235 79.7589 15.0443 79.0363 14.4958C78.2684 13.9129 77.8827 13.3049 77.6864 12.6898C77.4996 12.1047 77.4852 11.5154 77.4712 10.9448C77.4706 10.9179 77.4699 10.8909 77.4692 10.864C77.4542 10.2658 77.4307 9.68971 77.2086 9.14435C76.9873 8.60125 76.5669 8.08416 75.7486 7.61126C74.9807 7.16746 74.367 7.08555 73.8268 7.18625C73.2837 7.28749 72.8095 7.57394 72.3201 7.88004C72.2987 7.89339 72.2774 7.90677 72.256 7.92017C71.789 8.21266 71.3056 8.51542 70.7422 8.66887C70.1504 8.83006 69.473 8.82613 68.633 8.4833C67.7404 8.11905 67.2105 7.63156 66.8617 7.08829C66.5298 6.57141 66.3633 6.00586 66.2022 5.4583C66.1946 5.43245 66.187 5.40664 66.1794 5.38088C66.01 4.80696 65.8382 4.25655 65.4825 3.78727C65.1282 3.31994 64.5883 2.92929 63.6755 2.68429C62.8189 2.45436 62.2049 2.53409 61.7091 2.77117C61.2107 3.00953 60.8269 3.40895 60.4333 3.83129C60.4162 3.8497 60.399 3.86815 60.3818 3.88663C60.0064 4.29002 59.6179 4.70758 59.1134 5.00161C58.5835 5.31047 57.9282 5.482 57.028 5.36828C56.0716 5.24745 55.4336 4.91372 54.956 4.47925C54.5017 4.0659 54.1946 3.56273 53.8972 3.07556C53.8831 3.05253 53.8691 3.02954 53.8551 3.0066C53.543 2.49607 53.2346 2.00888 52.7695 1.64766C52.3063 1.28795 51.6837 1.05037 50.7386 1.04995C49.8517 1.04956 49.2792 1.28549 48.8617 1.6428C48.442 2.00203 48.1746 2.4872 47.9038 2.997C47.8919 3.01922 47.8801 3.04149 47.8683 3.0638C47.6101 3.55059 47.3429 4.05449 46.9317 4.46906ZM48.7967 1.56682C49.2351 1.19156 49.8319 0.949554 50.7386 0.949952C51.7022 0.950374 52.3474 1.19324 52.8308 1.56869C53.3123 1.94263 53.6291 2.44531 53.9404 2.95444C53.9537 2.97629 53.9671 2.99816 53.9804 3.02002C54.2795 3.50984 54.5799 4.00183 55.0233 4.40528C55.4848 4.82516 56.1034 5.15068 57.0406 5.26907C57.9199 5.38016 58.553 5.21251 59.0631 4.91522C59.5544 4.62883 59.9338 4.22119 60.3116 3.81529C60.3278 3.79789 60.344 3.7805 60.3602 3.76312C60.7522 3.34234 61.148 2.92866 61.666 2.68095C62.1866 2.43196 62.8257 2.35264 63.7014 2.58771C64.632 2.8375 65.1924 3.23909 65.5622 3.72686C65.9305 4.21268 66.1064 4.78024 66.2753 5.35258L66.297 5.42623C66.4591 5.97678 66.6219 6.52976 66.9458 7.03426C67.2829 7.55928 67.7962 8.0338 68.6708 8.39072C69.4914 8.72562 70.1463 8.72754 70.7159 8.57238C71.2646 8.42293 71.7366 8.12738 72.2066 7.83308L72.267 7.79526C72.7546 7.49029 73.244 7.19315 73.8084 7.08794C74.3758 6.98219 75.0136 7.07097 75.7986 7.52468C76.6329 8.00683 77.0702 8.53977 77.3012 9.10662C77.5312 9.67121 77.5542 10.265 77.5692 10.8615C77.5698 10.8871 77.5705 10.9127 77.5711 10.9384C77.5852 11.5121 77.5993 12.0883 77.7816 12.6594C77.9714 13.2538 78.3443 13.845 79.0967 14.4161C79.8027 14.952 80.4348 15.1234 81.0252 15.1209C81.5939 15.1186 82.1263 14.9552 82.6564 14.7926L82.7246 14.7717C83.2745 14.6034 83.8241 14.443 84.3965 14.4875C84.9719 14.5322 85.565 14.783 86.2059 15.4244C86.8869 16.1061 87.1714 16.734 87.2478 17.3413C87.3238 17.9462 87.1924 18.5257 87.0525 19.1058C87.0465 19.1307 87.0405 19.1556 87.0344 19.1805C86.8995 19.7383 86.7641 20.2986 86.7923 20.8974C86.8218 21.5207 87.029 22.1882 87.6079 22.9346C88.1512 23.635 88.7174 23.9641 89.2883 24.1146C89.8382 24.2595 90.3947 24.2395 90.9489 24.2196L91.0201 24.2171C91.5949 24.1968 92.1673 24.1841 92.7087 24.3752C93.2529 24.5673 93.7609 24.9631 94.2139 25.7486C94.6953 26.5832 94.8076 27.2635 94.7242 27.8698C94.641 28.4738 94.3641 28.9995 94.0788 29.5236C94.0666 29.5461 94.0543 29.5686 94.0421 29.5911C93.7674 30.095 93.4915 30.6011 93.3638 31.1869C93.231 31.7965 93.2583 32.495 93.6244 33.3658C93.9679 34.1829 94.4296 34.6473 94.9421 34.9404C95.4358 35.2227 95.9785 35.3475 96.5189 35.4717L96.5884 35.4877C97.1488 35.6168 97.705 35.7528 98.1785 36.0775C98.6544 36.4039 99.0427 36.9176 99.277 37.7936C99.5259 38.7244 99.4583 39.4105 99.2208 39.9746C98.9842 40.5365 98.5807 40.9726 98.1694 41.405L98.1165 41.4607C97.7208 41.8763 97.3233 42.2938 97.0483 42.8266C96.7622 43.381 96.6079 44.0628 96.7361 44.9986C96.8564 45.8768 97.1822 46.4449 97.6013 46.8606C98.0051 47.2611 98.497 47.5221 98.9869 47.7819L99.0499 47.8154C99.5578 48.0852 100.06 48.3604 100.433 48.7966C100.808 49.2351 101.05 49.8318 101.05 50.7385C101.05 51.7021 100.807 52.3473 100.431 52.8307C100.057 53.3122 99.5547 53.6291 99.0455 53.9403L98.98 53.9804C98.4901 54.2794 97.9982 54.5798 97.5947 55.0233C97.1748 55.4847 96.8493 56.1033 96.7309 57.0405C96.6198 57.9198 96.7875 58.5529 97.0848 59.063C97.3711 59.5543 97.7788 59.9337 98.1846 60.3115L98.2368 60.3601C98.6576 60.7522 99.0713 61.148 99.319 61.6659C99.568 62.1866 99.6473 62.8256 99.4123 63.7013C99.1625 64.632 98.7609 65.1924 98.2731 65.5621C97.7873 65.9304 97.2197 66.1064 96.6474 66.2752C96.6228 66.2825 96.5982 66.2897 96.5736 66.297C96.0231 66.459 95.4702 66.6218 94.9657 66.9457C94.4407 67.2828 93.9662 67.7961 93.6093 68.6707C93.2744 69.4913 93.2724 70.1462 93.4276 70.7159C93.577 71.2646 93.8726 71.7365 94.1669 72.2065L94.2047 72.267C94.5097 72.7546 94.8068 73.2439 94.912 73.8084C95.0178 74.3757 94.929 75.0135 94.4753 75.7986C93.9931 76.6328 93.4602 77.0702 92.8934 77.3011C92.3288 77.5311 91.735 77.5542 91.1385 77.5691L91.0616 77.571C90.4879 77.5851 89.9117 77.5993 89.3405 77.7816C88.7462 77.9713 88.155 78.3442 87.5839 79.0966C87.048 79.8026 86.8766 80.4347 86.8791 81.0251C86.8814 81.5938 87.0447 82.1263 87.2074 82.6564L87.2282 82.7245C87.3966 83.2744 87.557 83.824 87.5125 84.3965C87.4678 84.9718 87.217 85.5649 86.5756 86.2058C85.8939 86.8868 85.2659 87.1713 84.6586 87.2477C84.0538 87.3237 83.4743 87.1923 82.8942 87.0524L82.8195 87.0344C82.2617 86.8995 81.7014 86.764 81.1025 86.7923C80.4793 86.8217 79.8117 87.0289 79.0653 87.6079C78.365 88.1511 78.0359 88.7173 77.8854 89.2882C77.7405 89.8382 77.7605 90.3947 77.7803 90.9489L77.7829 91.0201C77.8032 91.5948 77.8158 92.1672 77.6247 92.7086C77.4326 93.2528 77.0369 93.7608 76.2514 94.2138C75.4167 94.6952 74.7365 94.8075 74.1301 94.7241C73.5262 94.641 73.0005 94.3641 72.4763 94.0788L72.4089 94.042C71.905 93.7673 71.3988 93.4914 70.8131 93.3638C70.2035 93.2309 69.505 93.2583 68.6342 93.6243C67.8171 93.9678 67.3527 94.4295 67.0596 94.942C66.7773 95.4357 66.6525 95.9785 66.5283 96.519L66.5123 96.5883C66.3832 97.1488 66.2472 97.7049 65.9225 98.1784C65.5961 98.6544 65.0823 99.0426 64.2064 99.2769C63.2756 99.5259 62.5895 99.4583 62.0254 99.2207C61.4635 98.9841 61.0273 98.5806 60.5949 98.1694L60.5392 98.1164C60.1236 97.7206 59.7061 97.3232 59.1734 97.0482C58.6189 96.7621 57.9372 96.6078 57.0013 96.736C56.1232 96.8563 55.555 97.1821 55.1393 97.6013C54.7388 98.0051 54.4779 98.497 54.218 98.9868L54.1846 99.0498C53.9148 99.5577 53.6395 100.06 53.2033 100.433C52.7649 100.808 52.1681 101.05 51.2614 101.05C50.2979 101.05 49.6526 100.807 49.1692 100.431C48.6877 100.057 48.3709 99.5546 48.0596 99.0455L48.0196 98.9799C47.7205 98.4901 47.4202 97.9981 46.9767 97.5946C46.5152 97.1747 45.8966 96.8492 44.9595 96.7308C44.0801 96.6197 43.447 96.7874 42.937 97.0847C42.4456 97.3711 42.0662 97.7787 41.6884 98.1846L41.6399 98.2368C41.2478 98.6576 40.852 99.0712 40.334 99.3189C39.8134 99.5679 39.1743 99.6473 38.2986 99.4122C37.368 99.1624 36.8076 98.7608 36.4378 98.273C36.0696 97.7872 35.8936 97.2197 35.7247 96.6473L35.703 96.5736C35.5409 96.0231 35.3781 95.4701 35.0542 94.9656C34.7171 94.4406 34.2039 93.9661 33.3293 93.6092C32.5086 93.2743 31.8537 93.2724 31.2841 93.4275C30.7354 93.577 30.2634 93.8725 29.7934 94.1668L29.733 94.2046C29.2454 94.5096 28.756 94.8067 28.1916 94.912C27.6242 95.0177 26.9864 94.9289 26.2014 94.4752C25.3671 93.9931 24.9298 93.4601 24.6989 92.8933C24.4689 92.3287 24.4458 91.7349 24.4308 91.1384L24.4289 91.0616C24.4148 90.4878 24.4007 89.9116 24.2184 89.3405C24.0287 88.7461 23.6557 88.1549 22.9033 87.5838C22.1973 87.0479 21.5652 86.8765 20.9748 86.879C20.4061 86.8813 19.8737 87.0447 19.3436 87.2073L19.2755 87.2282C18.7255 87.3965 18.1759 87.5569 17.6035 87.5124C17.0281 87.4677 16.435 87.2169 15.7942 86.5755C15.1131 85.8938 14.8286 85.2659 14.7523 84.6586C14.6762 84.0537 14.8076 83.4742 14.9476 82.8941L14.9656 82.8194C15.1005 82.2616 15.236 81.7013 15.2077 81.1025C15.1783 80.4792 14.971 79.8116 14.3921 79.0653C13.8489 78.3649 13.2826 78.0358 12.7118 77.8853C12.1618 77.7404 11.6053 77.7604 11.0511 77.7803C11.0273 77.7811 11.0036 77.782 10.9799 77.7828C10.4051 77.8031 9.83274 77.8158 9.29133 77.6246C8.74712 77.4326 8.23916 77.0368 7.78614 76.2513C7.30473 75.4166 7.19244 74.7364 7.27588 74.1301C7.35899 73.5261 7.6359 73.0004 7.9212 72.4763C7.93344 72.4538 7.94569 72.4313 7.95795 72.4088C8.23263 71.9049 8.50851 71.3988 8.63619 70.813C8.76907 70.2034 8.74169 69.5049 8.37564 68.6341C8.03217 67.817 7.57044 67.3526 7.05794 67.0595C6.56425 66.7772 6.0215 66.6524 5.48107 66.5282C5.45792 66.5229 5.43478 66.5176 5.41164 66.5122C4.8512 66.3831 4.29504 66.2471 3.82154 65.9224C3.34558 65.596 2.95738 65.0823 2.72308 64.2063C2.4741 63.2755 2.54169 62.5894 2.77923 62.0253C3.01582 61.4634 3.41937 61.0273 3.83059 60.5949C3.84824 60.5763 3.86591 60.5577 3.88358 60.5392C4.27931 60.1235 4.67678 59.7061 4.95171 59.1733C5.23784 58.6189 5.39216 57.9371 5.26397 57.0013C5.14368 56.1231 4.81789 55.555 4.39871 55.1393C3.9949 54.7388 3.50294 54.4778 3.01307 54.2179C2.99209 54.2068 2.97111 54.1957 2.95015 54.1845C2.44224 53.9147 1.94021 53.6395 1.56688 53.2033C1.19162 52.7648 0.949615 52.1681 0.950013 51.2614C0.950435 50.2978 1.1933 49.6526 1.56875 49.1692C1.94269 48.6877 2.44537 48.3708 2.9545 48.0596C2.97635 48.0462 2.99822 48.0329 3.02009 48.0195C3.50991 47.7205 4.00189 47.4201 4.40534 46.9766C4.82522 46.5152 5.15074 45.8966 5.26913 44.9594C5.38022 44.0801 5.21257 43.447 4.91528 42.9369C4.62889 42.4456 4.22124 42.0661 3.81533 41.6884C3.79794 41.6722 3.78055 41.656 3.76318 41.6398C3.3424 41.2477 2.92872 40.8519 2.68101 40.334C2.43202 39.8133 2.35271 39.1743 2.58777 38.2986C2.83757 37.3679 3.23915 36.8076 3.72692 36.4378C4.21274 36.0695 4.7803 35.8936 5.35264 35.7247C5.37721 35.7174 5.4018 35.7102 5.42639 35.7029C5.97691 35.5409 6.52985 35.3781 7.03432 35.0542C7.55934 34.7171 8.03387 34.2038 8.39078 33.3292C8.72568 32.5086 8.7276 31.8537 8.57245 31.284C8.42299 30.7353 8.12743 30.2633 7.83313 29.7933C7.82052 29.7732 7.80792 29.7531 7.79532 29.7329C7.49036 29.2453 7.19322 28.7559 7.08801 28.1915C6.98225 27.6242 7.07103 26.9864 7.52474 26.2013C8.00689 25.3671 8.53983 24.9297 9.10668 24.6988C9.67127 24.4688 10.265 24.4457 10.8616 24.4308C10.8872 24.4301 10.9128 24.4295 10.9384 24.4289C11.5121 24.4148 12.0884 24.4006 12.6595 24.2183C13.2539 24.0286 13.8451 23.6557 14.4162 22.9032C14.9521 22.1973 15.1234 21.5652 15.121 20.9748C15.1186 20.4061 14.9553 19.8737 14.7927 19.3435C14.7857 19.3208 14.7787 19.2981 14.7718 19.2754C14.6034 18.7255 14.4431 18.1759 14.4875 17.6034C14.5322 17.028 14.783 16.435 15.4245 15.7941C16.1061 15.1131 16.7341 14.8285 17.3414 14.7522C17.9463 14.6762 18.5258 14.8076 19.1059 14.9475C19.1308 14.9535 19.1557 14.9595 19.1806 14.9655C19.7384 15.1004 20.2987 15.2359 20.8975 15.2076C21.5207 15.1782 22.1883 14.971 22.9347 14.392C23.6351 13.8488 23.9642 13.2826 24.1146 12.7117C24.2595 12.1618 24.2396 11.6052 24.2197 11.0511C24.2188 11.0273 24.218 11.0036 24.2172 10.9798C24.1969 10.4051 24.1842 9.83268 24.3753 9.29127C24.5674 8.74705 24.9632 8.2391 25.7486 7.78608C26.5833 7.30467 27.2635 7.19238 27.8699 7.27582C28.4738 7.35893 28.9996 7.63584 29.5237 7.92113C29.5462 7.93338 29.5687 7.94564 29.5912 7.9579C30.0951 8.23257 30.6012 8.50845 31.187 8.63613C31.7966 8.76901 32.495 8.74162 33.3658 8.37558C34.1829 8.03211 34.6474 7.57037 34.9404 7.05788C35.2228 6.5642 35.3475 6.02146 35.4717 5.48104C35.4771 5.45788 35.4824 5.43473 35.4877 5.41158C35.6169 4.85114 35.7528 4.29498 36.0775 3.82148C36.4039 3.34552 36.9177 2.95731 37.7936 2.72302C38.7245 2.47404 39.4106 2.54163 39.9747 2.77917C40.5365 3.01576 40.9727 3.41931 41.4051 3.83053C41.4237 3.84817 41.4422 3.86583 41.4607 3.88349C41.8764 4.27922 42.2939 4.67671 42.8266 4.95165C43.3811 5.23777 44.0628 5.3921 44.9987 5.26391C45.8768 5.14362 46.445 4.81783 46.8607 4.39865C47.2612 3.99486 47.5222 3.50291 47.782 3.01306C47.7932 2.99206 47.8043 2.97107 47.8154 2.95009C48.0852 2.44218 48.3605 1.94015 48.7967 1.56682Z" fill="black"/>
<path fill-rule="evenodd" clip-rule="evenodd" d="M50.8126 7.54283C39.2142 7.54283 28.0907 12.1503 19.8894 20.3516C11.6881 28.553 7.08059 39.6764 7.08059 51.2748C7.08059 62.8733 11.6881 73.9967 19.8894 82.1981C28.0907 90.3994 39.2142 95.0069 50.8126 95.0069C62.4111 95.0069 73.5345 90.3994 81.7358 82.1981C89.9372 73.9967 94.5446 62.8733 94.5446 51.2748C94.5446 39.6764 89.9372 28.553 81.7358 20.3516C73.5345 12.1503 62.4111 7.54283 50.8126 7.54283ZM19.8187 20.2809C28.0388 12.0608 39.1876 7.44283 50.8126 7.44283C62.4376 7.44283 73.5864 12.0608 81.8065 20.2809C90.0266 28.501 94.6446 39.6499 94.6446 51.2748C94.6446 62.8998 90.0266 74.0487 81.8065 82.2688C73.5864 90.4889 62.4376 95.1069 50.8126 95.1069C39.1876 95.1069 28.0388 90.4889 19.8187 82.2688C11.5986 74.0487 6.98059 62.8998 6.98059 51.2748C6.98059 39.6499 11.5986 28.501 19.8187 20.2809Z" fill="black"/>
<path fill-rule="evenodd" clip-rule="evenodd" d="M17.7729 51.2432C17.773 33.1222 32.4958 18.3993 50.6168 18.3993C68.7378 18.3993 83.434 33.1223 83.434 51.2432C83.434 69.3641 68.7377 84.0604 50.6168 84.0604C32.4959 84.0604 17.7729 69.3642 17.7729 51.2432ZM50.6168 18.4993C32.5511 18.4993 17.873 33.1774 17.8729 51.2432C17.8729 69.3088 32.551 83.9604 50.6168 83.9604C68.6825 83.9604 83.334 69.3089 83.334 51.2432C83.334 33.1774 68.6824 18.4993 50.6168 18.4993ZM57.8527 32.9371C55.4757 32.4215 53.0987 32.2637 50.6974 32.3031C48.2966 32.3424 45.874 32.5786 43.4593 32.9384L42.5851 33.8126L41.6866 32.9414H38.3699C37.8549 35.4711 37.7762 37.9828 38.3685 40.4747H41.7132L42.5846 39.6305L43.4582 40.4769C48.3275 41.0317 53.1279 41.0508 57.8554 40.477L58.7559 39.6311L59.6267 40.4747H62.9686C63.399 37.8986 63.5072 35.3741 62.9708 32.9414H59.6006L58.7288 33.8132L57.8527 32.9371ZM50.6958 32.2031C53.1073 32.1636 55.4971 32.3224 57.8883 32.8425L57.9027 32.8456L58.7288 33.6718L59.5592 32.8414H63.0509L63.0597 32.8805C63.6127 35.3555 63.4999 37.9214 63.0602 40.533L63.0532 40.5747H59.5862L58.7549 39.7693L57.9 40.5723L57.8837 40.5743C53.1371 41.1518 48.3178 41.1324 43.43 40.5743L43.4131 40.5724L42.5846 39.7698L41.7537 40.5747H38.2897L38.2805 40.5363C37.6709 38.0014 37.7529 35.4484 38.2801 32.8813L38.2883 32.8414H41.7271L42.584 33.6723L43.412 32.8444L43.4283 32.8419C45.8516 32.4803 48.2842 32.2425 50.6958 32.2031ZM48.5676 43.2947C48.267 44.0966 48.0033 45.2496 47.7938 46.6493L47.7874 46.6918L24.4859 46.7715C28.9642 61.7973 37.199 74.5311 51.2001 83.71C63.2295 74.7552 72.7874 63.2595 77.7052 46.5858L54.1377 46.6655L54.1313 46.6228C53.9217 45.2311 53.6575 44.0848 53.3565 43.2876C53.206 42.8887 53.0473 42.5801 52.8836 42.3721C52.7194 42.1634 52.5568 42.0641 52.3988 42.0641H49.5263C49.3677 42.0641 49.2049 42.1639 49.0405 42.3739C48.8767 42.5831 48.7181 42.8935 48.5676 43.2947ZM48.9617 42.3123C49.1339 42.0924 49.3225 41.9641 49.5263 41.9641H52.3988C52.6019 41.9641 52.7902 42.0917 52.9622 42.3103C53.1349 42.5298 53.2979 42.8491 53.4501 43.2522C53.7515 44.0508 54.0148 45.1898 54.2237 46.5652L77.839 46.4853L77.8201 46.5496C72.8968 63.2957 63.3038 74.8314 51.2318 83.8111L51.2037 83.832L51.1745 83.8128C37.1129 74.6045 28.8537 61.8189 24.371 46.7359L24.352 46.6719L47.7013 46.5921C47.9102 45.2085 48.1728 44.0628 48.474 43.2596C48.626 42.8541 48.7889 42.533 48.9617 42.3123Z" fill="black"/>
<path fill-rule="evenodd" clip-rule="evenodd" d="M50.829 19.3263C42.6681 26.8395 34.2875 33.9193 22.0779 36.9334C22.7058 40.2881 23.4783 43.5579 24.4184 46.721L47.7438 46.6412C47.7584 46.5436 47.7818 46.4705 47.797 46.3753C47.8709 45.9087 47.9503 45.4743 48.0364 45.072C48.0914 44.8131 48.1364 44.5576 48.1959 44.3273C48.2288 44.2012 48.2682 44.0718 48.3023 43.955C48.3483 43.7962 48.3872 43.644 48.4353 43.5028C48.442 43.4833 48.4551 43.4688 48.4619 43.4496C48.5227 43.2751 48.5841 43.1158 48.6481 42.9709C48.7154 42.8185 48.7904 42.6895 48.8609 42.5719C48.9307 42.4554 49.001 42.3596 49.0736 42.2794C49.1518 42.1931 49.232 42.1349 49.313 42.0932C49.385 42.0561 49.4518 42.0134 49.5258 42.0134H52.3982C52.4776 42.0134 52.5604 42.0513 52.6376 42.0932C52.6456 42.0978 52.6562 42.0881 52.6642 42.0932C52.7211 42.1262 52.7682 42.198 52.8238 42.2528C52.8554 42.2854 52.899 42.293 52.9302 42.3326C52.9574 42.3655 52.9831 42.4009 53.0099 42.4389C53.0694 42.5255 53.1122 42.6203 53.1695 42.7315C53.2471 42.8784 53.3089 43.0479 53.3823 43.2368C53.4033 43.2909 53.4415 43.3391 53.4621 43.3964C53.5215 43.5629 53.5655 43.7356 53.6217 43.9284C53.6299 43.9562 53.6402 43.9798 53.6483 44.0082C53.6669 44.0736 53.6832 44.1527 53.7015 44.2209C53.77 44.4771 53.8248 44.7787 53.8876 45.072C53.9881 45.5419 54.0964 46.058 54.1802 46.6146L77.7715 46.5348C78.6053 43.699 79.3181 40.7201 79.8727 37.5717C70.1617 33.968 58.9324 27.6686 50.829 19.3263ZM50.696 32.2524C53.1049 32.2129 55.4906 32.3716 57.8772 32.8907L58.7283 33.7418L59.5793 32.8907H63.0103C63.5615 35.3572 63.4495 37.916 63.0103 40.524H59.6059L58.7549 39.6995L57.8772 40.524C53.1347 41.101 48.3194 41.0817 43.4351 40.524L42.584 39.6995L41.7329 40.524H38.3285C37.721 37.9977 37.8024 35.4524 38.3285 32.8907H41.7063L42.584 33.7418L43.4351 32.8907C45.8568 32.5293 48.2872 32.2918 50.696 32.2524Z" fill="black"/>
<path fill-rule="evenodd" clip-rule="evenodd" d="M50.831 19.2566L50.8649 19.2915C58.9617 27.627 70.184 33.9229 79.8901 37.5249L79.9292 37.5394L79.9219 37.5804C79.367 40.7307 78.6543 43.7121 77.8201 46.5496L77.809 46.5847L54.1377 46.6655L54.1313 46.6228C54.0477 46.0678 53.9392 45.5523 53.8387 45.0825C53.8387 45.0825 53.8387 45.0825 53.8387 45.0825C53.8199 44.9946 53.8019 44.9065 53.7841 44.8193C53.742 44.6133 53.701 44.4128 53.6532 44.2338C53.6438 44.1989 53.635 44.1612 53.6264 44.1251M53.6002 44.0218C53.5966 44.0094 53.5925 43.9978 53.5879 43.9849L53.5873 43.9832C53.5829 43.971 53.5781 43.9573 53.5737 43.9425C53.5578 43.888 53.543 43.8354 53.5286 43.7844C53.4915 43.653 53.4573 43.5319 53.415 43.4132C53.4063 43.3891 53.3937 43.3663 53.3788 43.3401L53.3762 43.3354C53.3626 43.3114 53.347 43.2841 53.3357 43.255C53.3252 43.2278 53.3149 43.2012 53.3048 43.175C53.2441 43.0175 53.1903 42.8781 53.1253 42.7548C53.1112 42.7275 53.0979 42.7012 53.0855 42.6764C53.0459 42.5977 53.0122 42.5307 52.9689 42.4675C52.9422 42.4297 52.9176 42.3958 52.8916 42.3644L52.8908 42.3635C52.8815 42.3516 52.87 42.3437 52.852 42.3333C52.8502 42.3322 52.8484 42.3312 52.8464 42.3301C52.8302 42.3208 52.8076 42.3078 52.7883 42.288C52.7676 42.2675 52.7472 42.244 52.7287 42.2227C52.7212 42.214 52.714 42.2057 52.7072 42.1981C52.6863 42.1747 52.6681 42.1565 52.6507 42.144C52.6498 42.1441 52.6489 42.1442 52.648 42.1443C52.6394 42.1449 52.6265 42.1443 52.6133 42.1369C52.5361 42.0951 52.4641 42.0641 52.3988 42.0641H49.5263C49.499 42.0641 49.4705 42.0713 49.4387 42.0852C49.4162 42.095 49.3947 42.1065 49.371 42.1191C49.3599 42.1251 49.3483 42.1312 49.3359 42.1376C49.2601 42.1767 49.1847 42.2312 49.1107 42.3129C49.0406 42.3903 48.9722 42.4834 48.9037 42.5976C48.8335 42.7148 48.7598 42.8416 48.6938 42.9911C48.6305 43.1344 48.5696 43.2924 48.5091 43.4661C48.5039 43.481 48.4963 43.4937 48.4917 43.5014M48.4826 43.5191C48.4493 43.6166 48.4207 43.7189 48.3906 43.8265C48.3777 43.8729 48.3644 43.9204 48.3503 43.9689C48.3426 43.9955 48.3345 44.0227 48.3264 44.0502C48.2986 44.1444 48.2695 44.243 48.2443 44.3399C48.2045 44.494 48.1714 44.6587 48.1371 44.8296C48.1204 44.9125 48.1034 44.997 48.0853 45.0824C47.9995 45.4837 47.9202 45.9173 47.8464 46.3831C47.8388 46.4305 47.8293 46.4726 47.8201 46.5131L47.819 46.5184C47.8094 46.5608 47.8008 46.6025 47.7938 46.6493L47.7874 46.6918L24.3811 46.7712L24.371 46.7359C23.4304 43.571 22.6569 40.2988 22.0287 36.9426L22.0201 36.8962L22.0659 36.8849C34.2622 33.8741 42.6349 26.8022 50.7951 19.2896L50.831 19.2566M22.1357 36.9706C22.7594 40.2948 23.5253 43.5354 24.4557 46.6709L47.7013 46.5921C47.7075 46.5583 47.7146 46.5265 47.7214 46.4963L47.7224 46.4919C47.7317 46.4508 47.7406 46.4116 47.7476 46.3674C47.8216 45.9002 47.9012 45.4649 47.9875 45.0616C48.0051 44.9788 48.0218 44.8957 48.0383 44.8134C48.073 44.6408 48.107 44.4716 48.1475 44.3148C48.1732 44.2162 48.203 44.1153 48.2308 44.0209C48.2388 43.9937 48.2467 43.967 48.2543 43.9411C48.2677 43.8947 48.2807 43.8484 48.2935 43.8025C48.3239 43.6936 48.3537 43.587 48.388 43.4867C48.3932 43.4715 48.4008 43.4588 48.4055 43.4508M48.4147 43.433C48.4759 43.2576 48.5377 43.0971 48.6023 42.9507C48.6709 42.7953 48.7473 42.6641 48.818 42.5462C48.8892 42.4274 48.9614 42.3288 49.0366 42.2458C49.1189 42.1549 49.2039 42.0932 49.2901 42.0487C49.2997 42.0438 49.3097 42.0385 49.32 42.033C49.3454 42.0195 49.3724 42.005 49.3986 41.9936C49.4367 41.9769 49.4797 41.9641 49.5263 41.9641H52.3988C52.487 41.9641 52.5742 42.0028 52.6488 42.0424C52.6507 42.0421 52.6528 42.0419 52.655 42.0418C52.6642 42.0413 52.6771 42.0425 52.69 42.0504C52.7256 42.0712 52.7558 42.1025 52.7818 42.1315C52.7907 42.1415 52.7992 42.1513 52.8073 42.1607C52.8247 42.1808 52.8409 42.1995 52.8589 42.2172L52.8597 42.218C52.8688 42.2274 52.8793 42.2335 52.8974 42.244L52.9023 42.2469C52.9217 42.2582 52.9474 42.2738 52.9691 42.3012C52.9975 42.3355 53.0239 42.372 53.0508 42.4101C53.0984 42.4795 53.1366 42.5553 53.1769 42.6356C53.1889 42.6594 53.2011 42.6837 53.2139 42.7084M22.1357 36.9706C34.3159 33.9513 42.6871 26.8882 50.8271 19.3961C58.9235 27.7165 70.1228 34.0011 79.8162 37.6041C79.2653 40.7222 78.5591 43.6739 77.7341 46.485L54.2237 46.5652C54.1406 46.0232 54.0344 45.5195 53.9365 45.0616C53.9182 44.9759 53.9004 44.8891 53.8828 44.8026C53.8404 44.5953 53.7984 44.39 53.7498 44.208C53.7418 44.1781 53.7341 44.146 53.7263 44.1132L53.7236 44.1019C53.715 44.0655 53.706 44.0284 53.6964 43.9945C53.6918 43.9786 53.6867 43.9641 53.6821 43.9513M57.8527 32.9371C55.4757 32.4215 53.0987 32.2637 50.6974 32.3031C48.2966 32.3424 45.874 32.5786 43.4593 32.9384L42.5851 33.8126L41.6866 32.9414H38.3699C37.8549 35.4711 37.7762 37.9828 38.3685 40.4747H41.7132L42.5846 39.6305L43.4582 40.4769C48.3275 41.0317 53.1279 41.0508 57.8554 40.477L58.7559 39.6311L59.6267 40.4747H62.9686C63.399 37.8986 63.5072 35.3741 62.9708 32.9414H59.6006L58.7288 33.8132L57.8527 32.9371ZM50.6958 32.2031C53.1073 32.1636 55.4971 32.3224 57.8883 32.8425L57.9027 32.8456L58.7288 33.6718L59.5592 32.8414H63.0509L63.0597 32.8805C63.6127 35.3555 63.4999 37.9214 63.0602 40.533L63.0532 40.5747H59.5862L58.7549 39.7693L57.9 40.5723L57.8837 40.5743C53.1371 41.1518 48.3178 41.1324 43.43 40.5743L43.4131 40.5724L42.5846 39.7698L41.7537 40.5747H38.2897L38.2805 40.5363C37.6709 38.0014 37.7529 35.4484 38.2801 32.8813L38.2883 32.8414H41.7271L42.584 33.6723L43.412 32.8444L43.4283 32.8419C45.8516 32.4803 48.2842 32.2425 50.6958 32.2031Z" fill="black"/>
<path fill-rule="evenodd" clip-rule="evenodd" d="M47.963 45.6318C47.5489 47.8548 47.2924 50.9281 47.2924 54.3241V67.418C47.2924 70.8141 47.5489 73.8873 47.963 76.1104C48.1701 77.2223 48.4162 78.119 48.6882 78.7366C48.8243 79.0456 48.9656 79.2818 49.1097 79.4401C49.2539 79.5985 49.396 79.6738 49.5347 79.6738H52.4031C52.5418 79.6738 52.6839 79.5985 52.8281 79.4401C52.9722 79.2818 53.1135 79.0456 53.2496 78.7366C53.5215 78.119 53.7676 77.2223 53.9748 76.1104C54.3889 73.8873 54.6453 70.8141 54.6453 67.418V54.3241C54.6453 50.9281 54.3889 47.8548 53.9748 45.6318C53.7676 44.5198 53.5215 43.6231 53.2496 43.0055C53.1135 42.6966 52.9722 42.4603 52.8281 42.302C52.6839 42.1436 52.5418 42.0683 52.4031 42.0683H49.5347C49.396 42.0683 49.2539 42.1436 49.1097 42.302C48.9656 42.4603 48.8243 42.6966 48.6882 43.0055C48.4162 43.6231 48.1701 44.5198 47.963 45.6318ZM49.0357 42.2347C49.19 42.0652 49.3569 41.9683 49.5347 41.9683H52.4031C52.5809 41.9683 52.7478 42.0652 52.902 42.2347C53.0564 42.4042 53.2029 42.6515 53.3411 42.9652C53.6176 43.5931 53.8654 44.4985 54.0731 45.6134C54.4886 47.8442 54.7453 50.9239 54.7453 54.3241V67.418C54.7453 70.8183 54.4886 73.8979 54.0731 76.1287C53.8654 77.2436 53.6176 78.149 53.3411 78.7769C53.2029 79.0907 53.0564 79.3379 52.902 79.5075C52.7478 79.6769 52.5809 79.7738 52.4031 79.7738H49.5347C49.3569 79.7738 49.19 79.6769 49.0357 79.5075C48.8814 79.3379 48.7348 79.0907 48.5967 78.7769C48.3202 78.149 48.0724 77.2436 47.8647 76.1287C47.4491 73.8979 47.1924 70.8183 47.1924 67.418V54.3241C47.1924 50.9239 47.4491 47.8442 47.8647 45.6134C48.0724 44.4985 48.3202 43.5931 48.5967 42.9652C48.7348 42.6515 48.8814 42.4042 49.0357 42.2347Z" fill="black"/>
<path fill-rule="evenodd" clip-rule="evenodd" d="M42.4773 35.6477C42.4222 35.9232 42.3867 36.3126 42.3867 36.749C42.3867 37.1854 42.4222 37.5749 42.4773 37.8503C42.4996 37.9614 42.5237 38.0474 42.547 38.1082C42.5703 38.0474 42.5944 37.9614 42.6166 37.8503C42.6717 37.5749 42.7072 37.1854 42.7072 36.749C42.7072 36.3127 42.6717 35.9232 42.6166 35.6477C42.5944 35.5366 42.5703 35.4506 42.547 35.3898C42.5237 35.4506 42.4996 35.5366 42.4773 35.6477ZM42.3013 35.029C42.3443 34.985 42.4144 34.936 42.5094 34.936H42.5846C42.6796 34.936 42.7497 34.985 42.7926 35.029C42.8353 35.0726 42.8668 35.1262 42.891 35.1772C42.9397 35.2803 42.9783 35.4167 43.0088 35.5692C43.0705 35.8775 43.1072 36.2945 43.1072 36.749C43.1072 37.2035 43.0705 37.6205 43.0088 37.9288C42.9783 38.0813 42.9397 38.2177 42.891 38.3208C42.8668 38.3718 42.8353 38.4254 42.7926 38.469C42.7497 38.513 42.6796 38.562 42.5846 38.562H42.5094C42.4144 38.562 42.3443 38.513 42.3013 38.469C42.2587 38.4254 42.2271 38.3718 42.203 38.3208C42.1542 38.2177 42.1156 38.0813 42.0851 37.9288C42.0234 37.6205 41.9867 37.2035 41.9867 36.749C41.9867 36.2945 42.0234 35.8775 42.0851 35.5692C42.1156 35.4167 42.1542 35.2803 42.203 35.1772C42.2271 35.1262 42.2587 35.0726 42.3013 35.029Z" fill="black"/>
<path fill-rule="evenodd" clip-rule="evenodd" d="M58.6368 35.6477C58.5817 35.9232 58.5461 36.3126 58.5461 36.749C58.5461 37.1854 58.5817 37.5749 58.6368 37.8503C58.659 37.9614 58.6831 38.0474 58.7064 38.1082C58.7297 38.0474 58.7538 37.9614 58.776 37.8503C58.8311 37.5749 58.8666 37.1854 58.8666 36.749C58.8666 36.3127 58.8311 35.9232 58.776 35.6477C58.7538 35.5366 58.7297 35.4506 58.7064 35.3898C58.6831 35.4506 58.659 35.5366 58.6368 35.6477ZM58.4607 35.029C58.5037 34.985 58.5738 34.936 58.6688 34.936H58.744C58.839 34.936 58.9091 34.985 58.9521 35.029C58.9947 35.0726 59.0263 35.1262 59.0504 35.1772C59.0991 35.2803 59.1378 35.4167 59.1683 35.5692C59.2299 35.8775 59.2667 36.2945 59.2667 36.749C59.2667 37.2035 59.2299 37.6205 59.1683 37.9288C59.1378 38.0813 59.0991 38.2177 59.0504 38.3208C59.0263 38.3718 58.9947 38.4254 58.9521 38.469C58.9091 38.513 58.839 38.562 58.744 38.562H58.6688C58.5738 38.562 58.5037 38.513 58.4607 38.469C58.4181 38.4254 58.3865 38.3718 58.3624 38.3208C58.3137 38.2177 58.275 38.0813 58.2445 37.9288C58.1829 37.6205 58.1461 37.2035 58.1461 36.749C58.1461 36.2945 58.1829 35.8775 58.2445 35.5692C58.275 35.4167 58.3137 35.2803 58.3624 35.1772C58.3865 35.1262 58.4181 35.0726 58.4607 35.029Z" fill="black"/>
<path fill-rule="evenodd" clip-rule="evenodd" d="M31.1398 51.926V58.8823C33.4338 57.6119 35.6667 57.6623 37.857 58.8836V52.0056C36.7608 51.164 35.6561 50.7222 34.5414 50.6998C33.4243 50.6773 32.291 51.0757 31.1398 51.926ZM37.957 52.0173V58.8808C40.2491 57.6125 42.4801 57.6627 44.6686 58.8821V52.0062C43.5705 51.1641 42.4688 50.7441 41.3568 50.7439C40.2423 50.7437 39.1112 51.1652 37.957 52.0173ZM37.9149 51.924C36.8074 51.0744 35.6836 50.6227 34.5434 50.5998C33.3928 50.5766 32.2316 50.9901 31.06 51.8607L31.0398 51.8757V59.0534L31.1144 59.0112C33.4286 57.7014 35.6724 57.754 37.8794 59.0111L37.9041 59.0251L37.9288 59.0112C40.243 57.7014 42.4868 57.754 44.6938 59.0111L44.7686 59.0537V51.957L44.7491 51.942C43.6315 51.0798 42.5025 50.6441 41.3568 50.6439C40.2213 50.6437 39.0756 51.0713 37.9149 51.924Z" fill="black"/>
<path fill-rule="evenodd" clip-rule="evenodd" d="M57.5824 51.9634V58.9197C59.8764 57.6493 62.1093 57.6996 64.2996 58.921V52.043C63.2035 51.2014 62.0988 50.7596 60.984 50.7371C59.8669 50.7146 58.7336 51.1131 57.5824 51.9634ZM64.3996 52.0546V58.9182C66.6917 57.6498 68.9227 57.7001 71.1112 58.9194V52.0436C70.0132 51.2014 68.9114 50.7815 67.7994 50.7813C66.6849 50.7811 65.5538 51.2026 64.3996 52.0546ZM64.3576 51.9614C63.2501 51.1118 62.1263 50.6601 60.9861 50.6371C59.8354 50.6139 58.6742 51.0275 57.5026 51.8981L57.4824 51.9131V59.0907L57.557 59.0485C59.8712 57.7388 62.115 57.7913 64.3221 59.0484L64.3467 59.0625L64.3714 59.0485C66.6856 57.7388 68.9294 57.7913 71.1365 59.0484L71.2112 59.091V51.9944L71.1918 51.9794C70.0742 51.1171 68.9451 50.6815 67.7995 50.6813C66.6639 50.6811 65.5182 51.1087 64.3576 51.9614Z" fill="black"/>
<path d="M9.75735 57.4579L9.44484 53.8359C9.37426 53.0178 9.50588 52.3774 9.83969 51.9148C10.1735 51.4522 10.6402 51.1951 11.2397 51.1433C11.8392 51.0916 12.3135 51.2509 12.6624 51.6212C13.1435 52.1303 13.4186 52.7857 13.4878 53.5872L13.601 54.8989L16.11 54.6824C16.2558 54.6698 16.3571 54.6261 16.414 54.5511C16.4855 54.4515 16.5145 54.3238 16.5011 54.1681L16.4291 53.3335L16.8017 53.3013L17.1057 56.8239L16.733 56.8561L16.6696 56.1207C16.657 55.975 16.6188 55.8707 16.555 55.8078C16.4912 55.7449 16.4096 55.7177 16.3102 55.7263L10.4524 56.2317C10.3034 56.2446 10.1994 56.2969 10.1406 56.3887C10.0818 56.4806 10.0627 56.6457 10.0833 56.8842L10.13 57.4258L9.75735 57.4579ZM13.2383 54.9302L13.1521 53.9315C13.0975 53.2989 12.9265 52.854 12.639 52.5968C12.3515 52.3396 11.9047 52.2372 11.2986 52.2895C10.8746 52.3261 10.5546 52.4171 10.3386 52.5625C10.1225 52.708 9.97037 52.9072 9.88206 53.16C9.79377 53.4129 9.77362 53.8176 9.82163 54.3741C9.85336 54.7417 9.90821 54.9714 9.98619 55.0631C10.0642 55.1548 10.1893 55.1933 10.3615 55.1784L13.2383 54.9302ZM9.23085 49.1283L9.65567 45.3421C9.73797 44.6087 9.96867 44.0583 10.3478 43.691C10.7269 43.3237 11.1873 43.1705 11.7292 43.2313C12.053 43.2676 12.3322 43.3801 12.567 43.5686C12.8018 43.7572 12.9773 44.0111 13.0938 44.3303C13.2102 44.6495 13.2651 45.1365 13.2585 45.7915C13.4404 45.3335 13.6032 45.0223 13.7472 44.8578C13.8911 44.6933 14.0673 44.5683 14.276 44.483C14.4846 44.3977 14.899 44.3196 15.5192 44.2487C15.9631 44.1981 16.2707 44.1256 16.4418 44.031C16.5737 43.9588 16.6452 43.8732 16.6563 43.7741C16.6678 43.6717 16.6033 43.5682 16.4628 43.4638C16.3223 43.3594 16.0632 43.276 15.6855 43.2135L15.7233 42.8765C16.8396 43.0653 17.3547 43.543 17.2687 44.3095C17.2417 44.5507 17.1571 44.7528 17.015 44.9158C16.8729 45.0788 16.678 45.1916 16.4301 45.2541C16.2439 45.3035 15.7677 45.3287 15.0014 45.3297C14.5565 45.33 14.2354 45.3734 14.0384 45.46C13.8413 45.5466 13.6738 45.6976 13.5359 45.913C13.398 46.1283 13.3113 46.3946 13.2757 46.7118L13.2084 47.3114L16.0877 47.6345C16.2099 47.6482 16.2994 47.6265 16.356 47.5692C16.4276 47.497 16.4729 47.3766 16.4918 47.2081L16.5708 46.5044L16.9425 46.5461L16.5605 49.9507L16.1888 49.909L16.2694 49.1904C16.2872 49.0319 16.2689 48.9119 16.2145 48.8305C16.16 48.7491 16.0783 48.7023 15.9693 48.6901L10.1115 48.0328C9.98597 48.0187 9.88755 48.0462 9.81624 48.1151C9.74495 48.1841 9.70059 48.2962 9.68316 48.4514L9.60253 49.17L9.23085 49.1283ZM12.8516 47.2714L12.9489 46.4041C13.0141 45.8226 12.9553 45.3552 12.7725 45.0018C12.5897 44.6484 12.2175 44.4402 11.6558 44.3772C11.2692 44.3338 10.9567 44.3615 10.7181 44.4602C10.4796 44.5589 10.3077 44.7044 10.2025 44.8966C10.0973 45.0889 10.0115 45.4807 9.94511 46.0721C9.90137 46.462 9.90157 46.7062 9.9457 46.8048C9.98984 46.9035 10.078 46.9602 10.2101 46.975L12.8516 47.2714ZM11.5432 36.4665C11.7487 35.8798 12.0957 35.384 12.5844 34.9791C13.0731 34.5743 13.6452 34.3237 14.3006 34.2274C14.9561 34.131 15.6305 34.2042 16.324 34.447C17.0175 34.6898 17.5924 35.0549 18.0487 35.5422C18.5051 36.0296 18.8001 36.5829 18.9338 37.2021C19.0675 37.8213 19.0344 38.4165 18.8345 38.9876C18.6389 39.5461 18.3025 40.0166 17.8252 40.3989C17.3478 40.7813 16.7725 41.0211 16.0992 41.1182C15.4259 41.2154 14.7425 41.1425 14.049 40.8998C13.3649 40.6603 12.7978 40.3006 12.3477 39.8206C11.8975 39.3407 11.6036 38.7967 11.4661 38.1884C11.3286 37.5802 11.3543 37.0062 11.5432 36.4665ZM11.932 36.5181C11.7178 37.13 11.7984 37.7148 12.1738 38.2724C12.5492 38.8301 13.3111 39.3099 14.4595 39.712C15.7053 40.1481 16.6347 40.2552 17.2479 40.033C17.8611 39.8109 18.2682 39.4128 18.4692 38.8385C18.6098 38.4369 18.6252 38.046 18.5152 37.6658C18.4053 37.2857 18.1466 36.923 17.739 36.5777C17.3315 36.2325 16.745 35.9259 15.9793 35.6578C15.1447 35.3656 14.4631 35.2221 13.9347 35.2273C13.4063 35.2325 12.9742 35.3525 12.6384 35.5872C12.3026 35.8218 12.0671 36.1322 11.932 36.5181ZM19.0753 24.4368L18.8369 23.6895L19.058 23.4003L21.2115 25.0091L21.0116 25.2706C20.2314 24.9335 19.5681 24.8104 19.0216 24.9011C18.4752 24.9917 18.0425 25.2457 17.7234 25.663C17.4569 26.0116 17.3431 26.3766 17.3821 26.758C17.4212 27.1394 17.5912 27.4452 17.8923 27.6754C18.0798 27.8188 18.2765 27.9022 18.4824 27.9257C18.6884 27.9492 18.8997 27.911 19.1164 27.8109C19.3331 27.7109 19.6693 27.4668 20.1251 27.0787C20.7664 26.5354 21.2602 26.1879 21.6064 26.0361C21.9526 25.8844 22.2854 25.8282 22.6049 25.8673C22.9244 25.9066 23.232 26.0392 23.5278 26.2654C24.056 26.6693 24.358 27.1816 24.4337 27.8023C24.5094 28.4231 24.3322 29.0148 23.9021 29.5773C23.4397 30.1821 22.8424 30.5583 22.1102 30.7057L22.3147 31.5714L22.0966 31.8566L19.8266 30.121L20.0446 29.8358C20.7554 30.2035 21.4391 30.3328 22.0957 30.2239C22.7524 30.1149 23.2655 29.8188 23.635 29.3355C23.9339 28.9446 24.0622 28.5373 24.0199 28.1137C23.9776 27.6901 23.7914 27.352 23.4612 27.0996C23.2737 26.9563 23.074 26.8768 22.862 26.8612C22.65 26.8456 22.4191 26.9013 22.1692 27.0283C21.9194 27.1553 21.5006 27.4608 20.913 27.9448C20.2651 28.4747 19.7562 28.7845 19.3863 28.8742C18.8645 28.9983 18.3566 28.8716 17.8628 28.494C17.3477 28.1002 17.0515 27.6132 16.9741 27.033C16.8967 26.4528 17.0539 25.9065 17.4456 25.3941C17.6334 25.1485 17.8557 24.9481 18.1125 24.7929C18.3693 24.6377 18.6902 24.519 19.0753 24.4368ZM25.8035 18.0069L25.6086 17.2395L25.8493 17.0375L27.8562 19.2268L27.6003 19.4417C26.8957 18.9436 26.289 18.6499 25.78 18.5606C25.1457 18.4462 24.6096 18.5728 24.1716 18.9404C23.698 19.338 23.4896 19.8732 23.5465 20.5459C23.6033 21.2187 24.055 22.0593 24.9014 23.0677C25.6131 23.9157 26.3266 24.4193 27.0419 24.5785C27.6485 24.7117 28.2141 24.5582 28.7387 24.1179C29.1971 23.7332 29.4582 23.2634 29.522 22.7085C29.5858 22.1536 29.4158 21.54 29.012 20.8676L29.2832 20.6399C29.7685 21.3785 29.9719 22.0888 29.8935 22.771C29.815 23.4532 29.4855 24.038 28.9049 24.5253C28.4338 24.9207 27.9021 25.1651 27.3099 25.2586C26.7177 25.352 26.1174 25.2753 25.5088 25.0287C24.9003 24.782 24.3738 24.3939 23.9292 23.8642C23.4568 23.3014 23.1349 22.671 22.9634 21.9728C22.792 21.2747 22.7918 20.6423 22.9628 20.0755C23.1338 19.5088 23.4383 19.0416 23.8763 18.6739C24.1208 18.4688 24.3929 18.312 24.6926 18.2037C24.9923 18.0953 25.3626 18.0298 25.8035 18.0069ZM28.2587 15.6679L31.2193 13.9938L31.4034 14.3194L30.8955 14.6066C30.6697 14.7343 30.5432 14.8431 30.5157 14.933C30.4883 15.023 30.5262 15.1592 30.6293 15.3415L33.3785 20.2033C33.4881 20.3972 33.5829 20.504 33.6628 20.5238C33.7699 20.5511 33.9146 20.5132 34.097 20.4101L34.6656 20.0885L34.8497 20.4141L31.8892 22.0882L31.7051 21.7626L32.2651 21.4459C32.4619 21.3347 32.5728 21.2337 32.598 21.1431C32.6231 21.0525 32.5809 20.9103 32.4712 20.7164L29.722 15.8545C29.6173 15.6693 29.5266 15.5697 29.45 15.5558C29.3313 15.535 29.1634 15.586 28.9464 15.7088L28.4428 15.9935L28.2587 15.6679ZM33.5287 12.8226L39.0492 10.9034L39.9982 13.2081L39.6826 13.3178C39.2994 12.6204 38.9206 12.1713 38.5464 11.9705C38.1721 11.7698 37.7668 11.7453 37.3303 11.897L35.9643 12.3719C35.8544 12.4101 35.7815 12.4689 35.7457 12.5482C35.7099 12.6275 35.7133 12.7284 35.7559 12.8508L36.6189 15.3332L37.2171 15.1252C37.5374 15.0139 37.7574 14.8089 37.8771 14.5104C37.9968 14.2118 37.9821 13.8227 37.833 13.3431L38.158 13.2301L39.2797 16.4567L38.9547 16.5697C38.7534 16.0413 38.5114 15.6969 38.2286 15.5365C37.9458 15.3761 37.6301 15.3565 37.2816 15.4777L36.7352 15.6676L37.698 18.4373C37.733 18.5378 37.7935 18.603 37.8795 18.6329C37.9656 18.6629 38.0871 18.6505 38.2442 18.5959L39.3228 18.2209C40.4941 17.8137 40.9095 16.8317 40.5688 15.2747L40.908 15.1568L41.6925 17.7931L35.9506 19.7893L35.8277 19.436L36.3035 19.2706C36.4888 19.2062 36.6079 19.1287 36.6609 19.0381C36.7139 18.9475 36.7191 18.841 36.6765 18.7186L34.7573 13.198C34.7147 13.0755 34.6501 12.9959 34.5634 12.9592C34.4767 12.9224 34.3627 12.9286 34.2214 12.9778L33.6515 13.1759L33.5287 12.8226ZM42.1735 10.1163L43.9249 9.93804L48.9372 15.2525L48.5124 11.0801C48.4696 10.6601 48.3421 10.3589 48.1297 10.1767C47.9356 10.0093 47.6645 9.93999 47.3165 9.96873L47.2787 9.59663L49.8436 9.33552L49.8815 9.70762C49.6202 9.73422 49.4288 9.79047 49.3072 9.87636C49.1856 9.96226 49.0866 10.106 49.0102 10.3076C48.9338 10.5092 48.9073 10.7241 48.9305 10.9523L49.5239 16.7818L49.0576 16.8293L43.8677 11.2973L44.3182 15.7227C44.359 16.1229 44.4902 16.4112 44.712 16.5874C44.9338 16.7637 45.2567 16.8336 45.6808 16.7971L45.7186 17.1692L42.9205 17.454L42.8826 17.0819C43.2319 17.033 43.498 16.8898 43.681 16.6523C43.864 16.4148 43.9395 16.1389 43.9075 15.8247L43.401 10.8485L43.3076 10.7678C43.124 10.6061 42.9958 10.5122 42.923 10.4862C42.8223 10.4496 42.696 10.4391 42.5438 10.4546L42.2114 10.4884L42.1735 10.1163ZM52.2381 9.46034L58.1877 10.1037L58.0317 12.8908L57.6896 12.8538C57.6411 11.2 57.1409 10.3216 56.1889 10.2186C55.9972 10.1979 55.8623 10.2168 55.784 10.2752C55.7058 10.3336 55.6585 10.4388 55.6421 10.5909L55.0083 16.4512C54.9954 16.5702 55.0207 16.6616 55.084 16.7253C55.1474 16.789 55.2583 16.8294 55.417 16.8465L56.1557 16.9264L56.1155 17.2983L52.7094 16.9299L52.7496 16.5581L53.5925 16.6492C53.7048 16.6614 53.7938 16.6426 53.8594 16.5928C53.925 16.5431 53.9628 16.4719 53.9728 16.3794L54.6156 10.4347C54.6292 10.3091 54.6015 10.21 54.5324 10.1373C54.4634 10.0647 54.3446 10.0192 54.176 10.001C53.6967 9.94914 53.2723 10.1323 52.9027 10.5505C52.5979 10.8954 52.3442 11.4632 52.1417 12.2538L51.7797 12.2147L52.2381 9.46034ZM60.2298 10.5838L63.516 11.4603L63.4196 11.8217L62.8558 11.6713C62.6053 11.6045 62.4387 11.5936 62.3561 11.6387C62.2736 11.6838 62.2053 11.8075 62.1513 12.0099L60.7119 17.4065C60.6545 17.6217 60.6474 17.7643 60.6906 17.8344C60.748 17.9288 60.8779 18.003 61.0803 18.057L61.7115 18.2254L61.6151 18.5868L58.3289 17.7102L58.4253 17.3489L59.0469 17.5147C59.2653 17.5729 59.4152 17.5785 59.4966 17.5314C59.578 17.4843 59.6474 17.3531 59.7048 17.1379L61.1443 11.7412C61.1991 11.5357 61.204 11.4011 61.1591 11.3375C61.0888 11.2396 60.9333 11.1585 60.6923 11.0942L60.1334 10.9452L60.2298 10.5838ZM68.5843 13.2406L68.8887 13.3785L68.517 20.6173C68.5014 20.9095 68.6435 21.1235 68.9434 21.2593L69.1523 21.3539L68.998 21.6946L66.3178 20.4807L66.4722 20.14L66.6857 20.2367C66.9643 20.3629 67.1748 20.4218 67.3174 20.4133C67.4153 20.4066 67.4842 20.3593 67.5239 20.2715C67.5473 20.22 67.5613 20.1607 67.5662 20.0935L67.6535 18.4141L65.0006 17.2125L64.3168 17.8882C64.1363 18.0692 64.0172 18.2233 63.9596 18.3505C63.8924 18.4989 63.9037 18.6573 63.9935 18.8257C64.0833 18.9941 64.2599 19.138 64.5234 19.2573L64.7505 19.3602L64.5962 19.7009L62.1613 18.5981L62.3156 18.2574C62.5761 18.3753 62.8077 18.4118 63.0106 18.3668C63.2134 18.3218 63.4505 18.1692 63.7217 17.9088L68.5843 13.2406ZM67.8662 14.4756L65.3065 16.924L67.6823 18.0001L67.8662 14.4756ZM79.3662 20.1874L79.6157 20.4096L77.105 27.2092C77.0031 27.4835 77.0751 27.7302 77.3208 27.9491L77.4921 28.1017L77.2433 28.381L75.0463 26.4239L75.2951 26.1446L75.4701 26.3005C75.6985 26.504 75.882 26.6229 76.0206 26.6573C76.1161 26.68 76.1959 26.6554 76.26 26.5834C76.2976 26.5412 76.3287 26.4888 76.3534 26.4261L76.9369 24.8489L74.7622 22.9117L73.9082 23.3531C73.682 23.4721 73.5224 23.5838 73.4295 23.6881C73.3212 23.8097 73.2848 23.9643 73.3203 24.1518C73.3559 24.3393 73.4817 24.5292 73.6976 24.7216L73.8838 24.8875L73.635 25.1667L71.6391 23.3888L71.8879 23.1095C72.1014 23.2997 72.3116 23.4035 72.5187 23.421C72.7257 23.4385 72.9975 23.3633 73.334 23.1955L79.3662 20.1874ZM78.3128 21.1525L75.1401 22.7274L77.0876 24.4622L78.3128 21.1525ZM83.5732 24.5658L87.0821 29.4134L84.9087 31.1651L84.707 30.8863C85.9021 29.7422 86.219 28.7823 85.6576 28.0066C85.5445 27.8504 85.4401 27.7629 85.3443 27.744C85.2485 27.7251 85.1387 27.7604 85.0148 27.8501L80.24 31.3064C80.143 31.3766 80.0921 31.4565 80.0872 31.5462C80.0824 31.6359 80.1268 31.7454 80.2203 31.8746L80.656 32.4765L80.3531 32.6959L78.3442 29.9206L78.6472 29.7013L79.1443 30.388C79.2105 30.4796 79.2841 30.5331 79.365 30.5484C79.4459 30.5637 79.524 30.5441 79.5994 30.4895L84.443 26.9835C84.5453 26.9095 84.6003 26.8224 84.608 26.7225C84.6157 26.6225 84.5698 26.5039 84.4704 26.3665C84.1877 25.976 83.7674 25.7837 83.2093 25.7895C82.749 25.7944 82.1576 25.9865 81.4349 26.366L81.2215 26.0711L83.5732 24.5658ZM84.2028 39.4763C84.0976 39.578 83.9484 39.7036 83.755 39.853C83.3921 40.1311 83.1698 40.3449 83.0882 40.4944C83.0067 40.6438 82.9922 40.7815 83.0448 40.9072C83.0936 41.0237 83.2008 41.0969 83.3665 41.1266C83.5321 41.1564 83.768 41.1108 84.0742 40.9898L84.1897 41.2659C83.6365 41.4939 83.1852 41.5567 82.8359 41.4542C82.4867 41.3517 82.2408 41.1303 82.0983 40.7899C81.966 40.474 81.985 40.1642 82.1552 39.8605C82.3254 39.5568 82.7558 39.2225 83.4464 38.8577C83.3316 38.7039 83.2301 38.5518 83.1419 38.4013C83.0536 38.2508 82.9794 38.1035 82.919 37.9594C82.6802 37.389 82.6077 36.8003 82.7014 36.1934C82.7951 35.5865 83.0594 35.0254 83.4941 34.51C83.9289 33.9946 84.4944 33.5911 85.1905 33.2997C86.178 32.8863 87.1555 32.8537 88.123 33.2019C89.0018 33.5188 89.6222 34.1097 89.9842 34.9745C90.2269 35.5541 90.3019 36.1444 90.2093 36.7454C90.1168 37.3464 89.8571 37.9056 89.4304 38.4231C89.0037 38.9405 88.4514 39.3411 87.7737 39.6249C87.1542 39.8842 86.555 40.0026 85.9761 39.98C85.3972 39.9575 84.8061 39.7896 84.2028 39.4763ZM84.7413 38.9805C85.1235 39.0152 85.5131 38.9944 85.9101 38.9183C86.3071 38.8422 86.7801 38.6892 87.329 38.4594C88.1018 38.1359 88.6776 37.7957 89.0562 37.439C89.4349 37.0822 89.6674 36.7056 89.7536 36.3091C89.8399 35.9125 89.8022 35.521 89.6404 35.1346C89.4812 34.7544 89.231 34.4581 88.8899 34.2459C88.5488 34.0337 88.1149 33.9379 87.5882 33.9583C87.0616 33.9788 86.4072 34.1527 85.6252 34.4801C85.0732 34.7112 84.6206 34.9601 84.2674 35.227C83.9141 35.4938 83.6046 35.809 83.3387 36.1726C83.4772 36.1074 83.5894 36.0568 83.6753 36.0209C84.0555 35.8617 84.4194 35.8526 84.7668 35.9937C85.1142 36.1348 85.3707 36.4032 85.5363 36.7988C85.7032 37.1974 85.7098 37.5875 85.5559 37.9691C85.4383 38.2562 85.1667 38.5934 84.7413 38.9805ZM83.9203 38.6593C84.4697 38.4221 84.8397 38.1825 85.0304 37.9405C85.2761 37.6321 85.3232 37.297 85.1717 36.9352C85.051 36.6469 84.8602 36.4493 84.5992 36.3423C84.3381 36.2353 84.0619 36.2428 83.7706 36.3648C83.4823 36.4855 83.2569 36.7132 83.0943 37.048C83.0904 37.3055 83.1385 37.5539 83.2387 37.7931C83.3157 37.9771 83.4112 38.1408 83.5253 38.284C83.6393 38.4273 83.771 38.5524 83.9203 38.6593ZM91.9816 40.9515L92.4784 44.3212L92.1084 44.3757L92.0088 43.6998C91.9821 43.5189 91.9338 43.3967 91.864 43.333C91.7941 43.2694 91.6983 43.2466 91.5766 43.2645L87.4571 43.8719C87.0262 43.9354 86.7062 44.0212 86.497 44.1294C86.1878 44.2892 85.9582 44.5322 85.808 44.8585C85.6579 45.1848 85.6182 45.588 85.689 46.0682C85.7869 46.7326 86.0335 47.2138 86.4286 47.5117C86.8237 47.8097 87.309 47.9163 87.8846 47.8314L91.2345 47.3375C91.5305 47.2939 91.7519 47.2402 91.8988 47.1765C92.0457 47.1129 92.1562 47.0361 92.2303 46.9462C92.3044 46.8563 92.3533 46.7491 92.377 46.6247C92.4006 46.5002 92.3921 46.2998 92.3514 46.0235L92.7214 45.969L93.128 48.7268L92.758 48.7814L92.7289 48.5841C92.6833 48.2749 92.5663 48.0569 92.3779 47.9301C92.1895 47.8033 91.9374 47.7631 91.6217 47.8097L88.035 48.3385C87.2522 48.4539 86.619 48.3188 86.1353 47.933C85.5908 47.4992 85.2569 46.8645 85.1338 46.0291C85.0271 45.3055 85.046 44.7214 85.1904 44.2766C85.3349 43.8319 85.5857 43.4874 85.9429 43.2432C86.2148 43.0586 86.5727 42.9336 87.0167 42.8681L91.4224 42.2186C91.5342 42.2021 91.6165 42.1505 91.6693 42.0637C91.722 41.977 91.737 41.8563 91.7142 41.7017L91.6116 41.0061L91.9816 40.9515ZM93.0977 51.5227L92.5927 57.3455L90.1015 57.2696L90.1304 56.9368C90.9235 56.8721 91.4882 56.71 91.8244 56.4505C92.1606 56.191 92.3487 55.831 92.3886 55.3706L92.5135 53.9298C92.5236 53.8139 92.4997 53.7234 92.442 53.6583C92.3842 53.5932 92.2907 53.5551 92.1616 53.5439L89.5433 53.3169L89.4886 53.9478C89.4593 54.2857 89.5564 54.5702 89.78 54.8015C90.0035 55.0328 90.3646 55.1784 90.8633 55.2384L90.8336 55.5812L87.4304 55.286L87.4601 54.9432C88.0246 54.9755 88.4378 54.8954 88.6998 54.7028C88.9618 54.5103 89.1087 54.2302 89.1406 53.8626L89.1906 53.2863L86.2692 53.0329C86.1632 53.0237 86.079 53.0523 86.0165 53.1186C85.954 53.185 85.9156 53.3009 85.9013 53.4665L85.8026 54.6043C85.6955 55.8397 86.422 56.6202 87.9822 56.9457L87.9512 57.3034L85.2245 56.9418L85.7497 50.8855L86.1223 50.9178L86.0788 51.4196C86.0618 51.615 86.0838 51.7554 86.1449 51.8408C86.2059 51.9262 86.3009 51.9745 86.4301 51.9857L92.2529 52.4906C92.3821 52.5018 92.4812 52.4754 92.5501 52.4113C92.6191 52.3472 92.66 52.2406 92.673 52.0916L92.7251 51.4904L93.0977 51.5227Z" fill="black"/>
<path d="M27.1631 77.9979L27.9262 77.8163L28.198 78.0585L26.4318 80.085L26.1861 79.8659C26.5808 79.1133 26.7535 78.4611 26.7042 77.9094C26.6548 77.3577 26.4341 76.9071 26.042 76.5576C25.7144 76.2656 25.359 76.1247 24.9757 76.135C24.5925 76.1452 24.2748 76.2918 24.0226 76.5747C23.8655 76.7509 23.7675 76.9408 23.7286 77.1444C23.6897 77.3479 23.712 77.5615 23.7954 77.7851C23.8789 78.0087 24.097 78.3624 24.4498 78.846C24.9433 79.5264 25.2527 80.045 25.378 80.4016C25.5033 80.7582 25.5344 81.0943 25.4713 81.4099C25.4081 81.7255 25.2527 82.0223 25.005 82.3003C24.5625 82.7967 24.029 83.0592 23.4043 83.0881C22.7796 83.1169 22.2029 82.8957 21.6743 82.4245C21.1059 81.9179 20.7758 81.2941 20.6837 80.5529L19.8052 80.6917L19.5371 80.4528L21.4385 78.3197L21.7065 78.5586C21.2865 79.2397 21.1061 79.9117 21.1654 80.5747C21.2246 81.2377 21.4814 81.7716 21.9355 82.1764C22.3028 82.5038 22.6993 82.6623 23.1249 82.652C23.5505 82.6417 23.9016 82.4814 24.1781 82.1712C24.3352 81.995 24.4294 81.8018 24.4609 81.5916C24.4924 81.3814 24.4542 81.1469 24.3463 80.8882C24.2385 80.6295 23.9653 80.189 23.5269 79.5666C23.0472 78.8807 22.7765 78.3499 22.7149 77.9744C22.6303 77.4447 22.7949 76.9478 23.2085 76.4837C23.6399 75.9998 24.1478 75.741 24.7322 75.7074C25.3166 75.6739 25.8495 75.8717 26.331 76.3008C26.5618 76.5066 26.7449 76.7433 26.8804 77.011C27.0159 77.2787 27.1101 77.6077 27.1631 77.9979ZM32.265 80.9503L32.5441 81.134L31.0469 88.226C30.9859 88.5122 31.0929 88.7458 31.3678 88.9267L31.5594 89.0528L31.3538 89.3652L28.896 87.7478L29.1016 87.4353L29.2974 87.5642C29.5529 87.7323 29.7517 87.8234 29.8938 87.8373C29.9916 87.8459 30.067 87.81 30.12 87.7294C30.1511 87.6822 30.1742 87.6258 30.1895 87.5603L30.538 85.915L28.1051 84.314L27.3242 84.8747C27.1177 85.0253 26.976 85.1589 26.8992 85.2756C26.8097 85.4116 26.7961 85.5699 26.8585 85.7502C26.9209 85.9306 27.0729 86.1003 27.3145 86.2593L27.5228 86.3963L27.3172 86.7088L25.0844 85.2393L25.29 84.9269C25.5288 85.0841 25.7519 85.1563 25.9593 85.1435C26.1667 85.1308 26.4247 85.017 26.7332 84.8021L32.265 80.9503ZM31.3628 82.0581L28.4523 84.0768L30.631 85.5106L31.3628 82.0581ZM35.5921 83.3258L39.0164 84.5467C39.7899 84.8225 40.3177 85.2083 40.5997 85.7042C40.8818 86.2001 40.9217 86.7314 40.7197 87.2982C40.5176 87.865 40.1756 88.2302 39.6938 88.3937C39.0308 88.6197 38.3204 88.5976 37.5626 88.3274L36.3225 87.8853L35.4768 90.2574C35.4276 90.3952 35.4254 90.5056 35.4699 90.5885C35.5308 90.6949 35.6348 90.7744 35.782 90.8269L36.5711 91.1082L36.4455 91.4605L33.1152 90.2731L33.2408 89.9208L33.936 90.1687C34.0738 90.2178 34.1845 90.2264 34.2683 90.1945C34.352 90.1626 34.4106 90.0997 34.4441 90.0057L36.4186 84.4676C36.4688 84.3267 36.4644 84.2104 36.4053 84.1188C36.3462 84.0271 36.204 83.9411 35.9785 83.8607L35.4665 83.6781L35.5921 83.3258ZM36.4448 87.5424L37.3889 87.879C37.987 88.0923 38.4628 88.1216 38.8162 87.967C39.1695 87.8123 39.4484 87.4485 39.6527 86.8754C39.7956 86.4746 39.8458 86.1457 39.8033 85.8888C39.7608 85.6319 39.6428 85.4107 39.4495 85.2253C39.2562 85.0399 38.8965 84.8534 38.3704 84.6658C38.0228 84.5419 37.7911 84.4963 37.6753 84.5292C37.5594 84.562 37.4725 84.6598 37.4144 84.8227L36.4448 87.5424ZM42.294 85.4217L45.6544 85.9459L45.5967 86.3155L45.0202 86.2255C44.764 86.1856 44.5972 86.1924 44.5199 86.2459C44.4426 86.2994 44.3878 86.4297 44.3555 86.6366L43.4945 92.1552C43.4601 92.3753 43.4682 92.5179 43.5186 92.5829C43.5856 92.6708 43.7226 92.7309 43.9296 92.7631L44.5751 92.8638L44.5174 93.2334L41.157 92.7091L41.2147 92.3396L41.8503 92.4387C42.0737 92.4736 42.2233 92.4633 42.2993 92.4078C42.3752 92.3524 42.4303 92.2146 42.4647 91.9945L43.3257 86.476C43.3585 86.2657 43.3491 86.1314 43.2977 86.0729C43.2175 85.983 43.0542 85.9188 42.8079 85.8804L42.2363 85.7912L42.294 85.4217ZM47.2276 86.1688L53.0721 86.2119L53.1934 88.7013L52.8593 88.6988C52.7321 87.9133 52.5259 87.3632 52.2406 87.0486C51.9553 86.7339 51.5816 86.5749 51.1195 86.5715L49.6734 86.5609C49.557 86.56 49.4687 86.591 49.4084 86.6537C49.3481 86.7164 49.3174 86.8126 49.3165 86.9422L49.2971 89.5703L49.9305 89.5749C50.2695 89.5774 50.5455 89.4581 50.7584 89.217C50.9713 88.9758 51.0879 88.6043 51.1083 88.1025L51.4524 88.105L51.4272 91.5209L51.0831 91.5184C51.0706 90.9531 50.9581 90.5475 50.7455 90.3016C50.5328 90.0556 50.242 89.9313 49.873 89.9286L49.2945 89.9243L49.2729 92.8565C49.2721 92.9629 49.3073 93.0447 49.3783 93.1017C49.4494 93.1587 49.568 93.1879 49.7343 93.1891L50.8762 93.1975C52.1163 93.2066 52.8369 92.4207 53.038 90.8396L53.3971 90.8422L53.2522 93.589L47.1733 93.5443L47.1761 93.1702L47.6797 93.174C47.8759 93.1754 48.0141 93.1423 48.0944 93.0748C48.1747 93.0072 48.2153 92.9086 48.2163 92.7789L48.2593 86.9345C48.2603 86.8048 48.2261 86.7081 48.1567 86.6445C48.0874 86.5808 47.9779 86.5484 47.8283 86.5473L47.2249 86.5428L47.2276 86.1688ZM54.2181 86.2568L55.9302 85.8471L61.6048 90.4477L60.6289 86.3689C60.5306 85.9582 60.3641 85.6767 60.1294 85.5244C59.9147 85.3843 59.6369 85.3516 59.2958 85.4264L59.2088 85.0627L61.7162 84.4627L61.8033 84.8265C61.5478 84.8876 61.3656 84.9688 61.2565 85.0701C61.1474 85.1714 61.0684 85.327 61.0195 85.537C60.9706 85.747 60.9729 85.9635 61.0263 86.1866L62.3898 91.8854L61.9339 91.9944L56.0544 87.2019L57.0895 91.5281C57.1831 91.9193 57.3515 92.1875 57.5948 92.3327C57.8381 92.4779 58.1674 92.5042 58.5828 92.4117L58.6698 92.7754L55.9344 93.4299L55.8474 93.0662C56.187 92.9712 56.4318 92.7939 56.5816 92.5341C56.7313 92.2744 56.7695 91.9909 56.696 91.6838L55.5321 86.8192L55.4287 86.7516C55.2253 86.6157 55.0858 86.5397 55.0101 86.5236C54.9055 86.5008 54.7789 86.5072 54.6301 86.5428L54.3052 86.6205L54.2181 86.2568ZM62.2297 84.1666L67.5799 81.4858L68.958 83.9133L68.6504 84.0675C67.714 82.7034 66.8178 82.2358 65.9618 82.6647C65.7894 82.7511 65.6861 82.84 65.652 82.9315C65.6179 83.023 65.6351 83.1371 65.7036 83.2738L68.3442 88.5438C68.3978 88.6508 68.4685 88.7139 68.5562 88.7331C68.6439 88.7524 68.7591 88.7263 68.9018 88.6548L69.5661 88.3219L69.7337 88.6563L66.6707 90.1911L66.5031 89.8567L67.2611 89.4769C67.3621 89.4263 67.4268 89.3623 67.4549 89.2849C67.4831 89.2076 67.4764 89.1273 67.4347 89.0441L64.7561 83.6983C64.6995 83.5854 64.6225 83.5171 64.5251 83.4933C64.4277 83.4696 64.3032 83.4958 64.1516 83.5717C63.7206 83.7877 63.463 84.1715 63.3787 84.7232C63.3092 85.1782 63.4034 85.7929 63.6613 86.5673L63.3358 86.7304L62.2297 84.1666ZM68.4633 80.7365L71.2059 78.7252L71.427 79.0268L70.9565 79.3718C70.7474 79.5252 70.6346 79.6481 70.6179 79.7407C70.6013 79.8333 70.6549 79.964 70.7788 80.1329L74.0818 84.6369C74.2136 84.8165 74.3203 84.9114 74.4019 84.9216C74.5115 84.9361 74.6507 84.8814 74.8196 84.7575L75.3465 84.3712L75.5676 84.6728L72.825 86.6841L72.6039 86.3825L73.1226 86.0021C73.3049 85.8684 73.4032 85.7551 73.4175 85.6621C73.4318 85.5692 73.3731 85.4329 73.2414 85.2533L69.9383 80.7493C69.8125 80.5777 69.7107 80.4895 69.633 80.4847C69.5127 80.4781 69.352 80.5485 69.1509 80.696L68.6844 81.0381L68.4633 80.7365ZM74.7984 75.4588L75.0477 75.2363L81.5161 78.5072C81.7769 78.6398 82.0302 78.5965 82.2757 78.3773L82.4469 78.2246L82.6959 78.5036L80.5007 80.4627L80.2517 80.1837L80.4266 80.0276C80.6548 79.8239 80.7939 79.6552 80.8438 79.5215C80.8773 79.4292 80.862 79.3471 80.7978 79.2752C80.7602 79.233 80.7116 79.1961 80.6522 79.1645L79.1519 78.4046L76.9791 80.3438L77.32 81.2426C77.4124 81.481 77.5051 81.6523 77.5981 81.7564C77.7066 81.878 77.856 81.9318 78.0463 81.9179C78.2367 81.904 78.4397 81.8007 78.6555 81.6082L78.8416 81.4421L79.0906 81.7212L77.0963 83.501L76.8473 83.2219C77.0606 83.0315 77.1878 82.8345 77.2288 82.6308C77.2698 82.4271 77.2262 82.1486 77.0979 81.7951L74.7984 75.4588ZM75.6369 76.6155L76.8391 79.9473L78.785 78.2107L75.6369 76.6155Z" fill="black"/>
<path d="M19.5835 70.131C19.5835 70.4663 19.5174 70.7983 19.3891 71.1081C19.2608 71.4178 19.0727 71.6993 18.8356 71.9364C18.5985 72.1735 18.3171 72.3616 18.0073 72.4899C17.6975 72.6182 17.3655 72.6842 17.0302 72.6842C16.6949 72.6842 16.3628 72.6182 16.0531 72.4899C15.7433 72.3616 15.4618 72.1735 15.2247 71.9364C14.9876 71.6993 14.7996 71.4178 14.6712 71.1081C14.5429 70.7983 14.4769 70.4663 14.4769 70.131C14.4769 69.7957 14.5429 69.4636 14.6712 69.1539C14.7996 68.8441 14.9876 68.5626 15.2247 68.3255C15.4618 68.0884 15.7433 67.9003 16.0531 67.772C16.3628 67.6437 16.6949 67.5777 17.0302 67.5777C17.3655 67.5777 17.6975 67.6437 18.0073 67.772C18.3171 67.9003 18.5985 68.0884 18.8356 68.3255C19.0727 68.5626 19.2608 68.8441 19.3891 69.1539C19.5174 69.4636 19.5835 69.7957 19.5835 70.131Z" fill="black"/>
<path d="M87.739 69.5292C87.739 69.8645 87.673 70.1966 87.5447 70.5063C87.4164 70.8161 87.2283 71.0976 86.9912 71.3347C86.7541 71.5718 86.4726 71.7599 86.1629 71.8882C85.8531 72.0165 85.5211 72.0825 85.1858 72.0825C84.8504 72.0825 84.5184 72.0165 84.2086 71.8882C83.8989 71.7599 83.6174 71.5718 83.3803 71.3347C83.1432 71.0976 82.9551 70.8161 82.8268 70.5063C82.6985 70.1966 82.6325 69.8645 82.6325 69.5292C82.6325 69.1939 82.6985 68.8619 82.8268 68.5521C82.9551 68.2424 83.1432 67.9609 83.3803 67.7238C83.6174 67.4867 83.8989 67.2986 84.2086 67.1703C84.5184 67.042 84.8504 66.9759 85.1858 66.9759C85.5211 66.9759 85.8531 67.042 86.1629 67.1703C86.4726 67.2986 86.7541 67.4867 86.9912 67.7238C87.2283 67.9609 87.4164 68.2424 87.5447 68.5521C87.673 68.8619 87.739 69.1939 87.739 69.5292Z" fill="black"/>
<path d="M370.25 45.4599C368.717 45.4599 367.375 45.2146 366.225 44.7239C365.091 44.2333 364.217 43.482 363.603 42.47C363.005 41.458 362.729 40.1853 362.775 38.652H364.546C364.592 39.664 364.838 40.5533 365.282 41.32C365.727 42.0713 366.379 42.6616 367.237 43.091C368.111 43.505 369.2 43.712 370.503 43.712C372.282 43.712 373.769 43.321 374.965 42.539C376.161 41.7416 376.874 40.5226 377.104 38.882C377.258 37.7779 377.12 36.8963 376.69 36.2369C376.261 35.5623 375.563 35.0716 374.597 34.7649L369.56 33.201C368.027 32.7103 366.854 32.0203 366.041 31.1309C365.244 30.2416 364.953 29.0073 365.167 27.4279C365.351 26.094 365.781 24.9286 366.455 23.9319C367.145 22.9353 368.088 22.1609 369.284 21.6089C370.48 21.0416 371.929 20.7579 373.631 20.7579C375.701 20.7579 377.319 21.2716 378.484 22.299C379.665 23.3263 380.156 24.9133 379.956 27.0599H378.185C378.231 25.6953 377.863 24.599 377.081 23.771C376.299 22.9276 375.073 22.5059 373.401 22.5059C371.669 22.5059 370.212 22.9046 369.031 23.7019C367.851 24.4993 367.145 25.7413 366.915 27.4279C366.762 28.5013 366.984 29.3446 367.582 29.9579C368.196 30.5559 369.093 31.039 370.273 31.4069L375.287 32.971C376.054 33.2163 376.69 33.5383 377.196 33.937C377.702 34.3356 378.093 34.7879 378.369 35.2939C378.645 35.7999 378.814 36.352 378.875 36.95C378.952 37.548 378.944 38.1613 378.852 38.79C378.668 40.124 378.231 41.2893 377.541 42.2859C376.851 43.2826 375.901 44.0646 374.689 44.632C373.478 45.184 371.998 45.4599 370.25 45.4599Z" fill="black"/>
<path d="M347.148 45.4599C345.875 45.4446 344.741 45.2606 343.744 44.908C342.747 44.5553 341.919 44.034 341.26 43.344C340.601 42.654 340.141 41.7876 339.88 40.7449C339.635 39.6869 339.612 38.4526 339.811 37.042L342.019 21.2179H343.698L341.467 37.042C341.176 39.0353 341.498 40.6453 342.433 41.872C343.368 43.0986 344.986 43.712 347.286 43.712C349.325 43.712 351.043 43.137 352.438 41.9869C353.849 40.8369 354.723 39.066 355.06 36.674L357.245 21.2179H358.901L355.543 45H354.025L354.508 40.63C354.109 41.6113 353.565 42.47 352.875 43.206C352.185 43.9266 351.357 44.4863 350.391 44.8849C349.44 45.2836 348.359 45.4753 347.148 45.4599Z" fill="black"/>
<path d="M323.899 45.4599C321.983 45.4599 320.365 45.0229 319.046 44.1489C317.728 43.2596 316.792 41.9103 316.24 40.1009C315.704 38.2763 315.627 35.9686 316.01 33.178C316.363 30.694 317.015 28.5243 317.965 26.6689C318.916 24.7983 320.173 23.3493 321.737 22.3219C323.317 21.2793 325.195 20.7579 327.372 20.7579C328.706 20.7579 329.918 21.011 331.006 21.517C332.11 22.0076 333.007 22.759 333.697 23.771C334.387 24.783 334.771 26.0633 334.847 27.6119H333.03C333.015 26.5693 332.754 25.6646 332.248 24.8979C331.758 24.1313 331.075 23.5409 330.201 23.1269C329.327 22.7129 328.308 22.5059 327.142 22.5059C324.827 22.5059 322.811 23.38 321.093 25.128C319.391 26.8606 318.287 29.544 317.781 33.178C317.337 36.3366 317.62 38.8896 318.632 40.8369C319.66 42.7843 321.5 43.7579 324.152 43.7579C325.318 43.7579 326.399 43.551 327.395 43.137C328.392 42.723 329.243 42.1326 329.948 41.366C330.669 40.5993 331.183 39.6946 331.489 38.652H333.306C332.8 40.1853 332.057 41.458 331.075 42.47C330.109 43.482 329.005 44.2333 327.763 44.7239C326.521 45.2146 325.233 45.4599 323.899 45.4599Z" fill="black"/>
<path d="M299.486 45.4599C298.213 45.4446 297.078 45.2606 296.082 44.908C295.085 44.5553 294.257 44.034 293.598 43.344C292.938 42.654 292.479 41.7876 292.218 40.7449C291.973 39.6869 291.95 38.4526 292.149 37.042L294.357 21.2179H296.036L293.805 37.042C293.513 39.0353 293.835 40.6453 294.771 41.872C295.706 43.0986 297.324 43.712 299.624 43.712C301.663 43.712 303.38 43.137 304.776 41.9869C306.186 40.8369 307.06 39.066 307.398 36.674L309.583 21.2179H311.239L307.881 45H306.363L306.846 40.63C306.447 41.6113 305.903 42.47 305.213 43.206C304.523 43.9266 303.695 44.4863 302.729 44.8849C301.778 45.2836 300.697 45.4753 299.486 45.4599Z" fill="black"/>
<path d="M273.173 45.4599C271.732 45.4599 270.521 45.1993 269.539 44.678C268.558 44.1413 267.853 43.39 267.423 42.424C266.994 41.4426 266.864 40.2773 267.032 38.928C267.4 36.26 268.466 34.3203 270.229 33.109C271.993 31.8823 274.699 31.2 278.348 31.062L283.408 30.878L283.753 28.5779C284.014 26.6613 283.631 25.1739 282.603 24.1159C281.576 23.0426 280.127 22.5059 278.256 22.5059C276.677 22.5059 275.243 22.943 273.955 23.8169C272.667 24.6756 271.793 25.9253 271.333 27.566H269.539C269.769 26.4466 270.268 25.3656 271.034 24.3229C271.816 23.2803 272.844 22.4293 274.116 21.77C275.389 21.0953 276.876 20.7579 278.578 20.7579C280.127 20.7579 281.453 21.0723 282.557 21.701C283.661 22.3296 284.466 23.2266 284.972 24.392C285.478 25.542 285.616 26.9219 285.386 28.5319L283.086 45H281.568L282.12 40.4C280.878 42.378 279.475 43.7196 277.911 44.4249C276.347 45.1149 274.768 45.4599 273.173 45.4599ZM273.656 43.7579C274.561 43.7579 275.504 43.5816 276.485 43.229C277.467 42.861 278.387 42.3703 279.245 41.757C280.119 41.1283 280.848 40.4306 281.43 39.664C282.028 38.8973 282.381 38.1153 282.488 37.318L283.132 32.6719L278.923 32.764C276.593 32.8099 274.722 33.0476 273.311 33.4769C271.901 33.9063 270.843 34.5579 270.137 35.4319C269.447 36.2906 268.995 37.41 268.78 38.79C268.581 40.354 268.926 41.5729 269.815 42.4469C270.705 43.3209 271.985 43.7579 273.656 43.7579Z" fill="black"/>
<path d="M249.692 45.4599C247.039 45.4599 244.885 44.8236 243.229 43.5509C241.573 42.2629 240.446 40.3616 239.848 37.847C239.25 35.317 239.196 32.1813 239.687 28.4399C240.055 25.6339 240.637 23.1653 241.435 21.0339C242.232 18.8873 243.236 17.0933 244.448 15.652C245.674 14.2106 247.093 13.1219 248.703 12.3859C250.328 11.6499 252.137 11.2819 254.131 11.2819C256.155 11.2819 257.88 11.7573 259.306 12.708C260.732 13.6433 261.813 14.87 262.549 16.3879C263.285 17.9059 263.63 19.5159 263.584 21.2179H261.698C261.621 19.7766 261.284 18.4503 260.686 17.239C260.103 16.0123 259.252 15.031 258.133 14.295C257.013 13.5436 255.595 13.1679 253.878 13.1679C252.16 13.1679 250.612 13.49 249.232 14.134C247.852 14.7626 246.648 15.7133 245.621 16.986C244.593 18.2433 243.742 19.8303 243.068 21.747C242.393 23.6483 241.887 25.8793 241.55 28.4399C240.89 33.5459 241.258 37.3486 242.654 39.8479C244.049 42.3319 246.472 43.574 249.922 43.574C251.639 43.574 253.149 43.206 254.453 42.47C255.771 41.734 256.883 40.7603 257.788 39.549C258.692 38.3223 259.375 36.9883 259.835 35.547H261.721C261.429 36.8043 260.923 38.031 260.203 39.227C259.482 40.4076 258.593 41.4656 257.535 42.401C256.477 43.3363 255.281 44.08 253.947 44.632C252.628 45.184 251.21 45.4599 249.692 45.4599Z" fill="black"/>
<path d="M211.004 45L214.362 21.2179H215.88L215.397 24.7599C215.933 23.6866 216.577 22.8663 217.329 22.299C218.095 21.7163 218.893 21.3176 219.721 21.1029C220.549 20.8729 221.315 20.7579 222.021 20.7579C222.465 20.7579 222.902 20.7963 223.332 20.8729C223.761 20.9343 224.098 21.0493 224.344 21.2179L224.091 23.0579C223.815 22.9046 223.431 22.7973 222.941 22.7359C222.45 22.6746 222.051 22.6439 221.745 22.6439C221.055 22.6439 220.219 22.7973 219.238 23.104C218.272 23.4106 217.382 23.9856 216.57 24.8289C215.757 25.6569 215.236 26.8606 215.006 28.4399L212.683 45H211.004Z" fill="black"/>
<path d="M194.75 45.4599C192.849 45.4599 191.239 45.0153 189.92 44.1259C188.601 43.2366 187.658 41.8873 187.091 40.0779C186.539 38.2533 186.447 35.9533 186.815 33.178C187.137 30.694 187.758 28.5243 188.678 26.6689C189.613 24.7983 190.855 23.3493 192.404 22.3219C193.953 21.2793 195.808 20.7579 197.97 20.7579C199.856 20.7579 201.443 21.2103 202.731 22.1149C204.019 23.0043 204.939 24.369 205.491 26.209C206.043 28.0336 206.135 30.3566 205.767 33.178C205.445 35.6313 204.824 37.778 203.904 39.618C202.984 41.458 201.765 42.8916 200.247 43.9189C198.729 44.9463 196.897 45.4599 194.75 45.4599ZM194.98 43.7579C196.513 43.7579 197.901 43.3746 199.143 42.608C200.4 41.8413 201.451 40.6759 202.294 39.1119C203.153 37.5479 203.735 35.57 204.042 33.178C204.318 31.0466 204.28 29.1836 203.927 27.5889C203.59 25.9789 202.907 24.7293 201.88 23.84C200.868 22.9506 199.488 22.5059 197.74 22.5059C196.176 22.5059 194.758 22.8893 193.485 23.656C192.228 24.4226 191.17 25.5956 190.311 27.1749C189.468 28.7543 188.885 30.7553 188.563 33.178C188.287 35.294 188.325 37.1493 188.678 38.7439C189.031 40.3233 189.728 41.5576 190.771 42.4469C191.814 43.3209 193.217 43.7579 194.98 43.7579Z" fill="black"/>
<path d="M175.979 45L179.337 21.2179H181.016L177.681 45H175.979ZM180.073 14.5479L180.464 11.7879H182.488L182.097 14.5479H180.073Z" fill="black"/>
<path d="M150.787 45L154.122 21.2179H155.617L155.18 24.7599C155.655 24.0086 156.284 23.3339 157.066 22.7359C157.848 22.1226 158.745 21.6396 159.757 21.2869C160.784 20.9343 161.888 20.7579 163.069 20.7579C164.541 20.7579 165.806 21.0723 166.864 21.701C167.937 22.3296 168.711 23.2956 169.187 24.5989C169.677 25.9023 169.777 27.566 169.486 29.59L167.324 45H165.668L167.853 29.59C168.19 27.2899 167.899 25.5343 166.979 24.3229C166.074 23.1116 164.702 22.5059 162.862 22.5059C161.558 22.5059 160.324 22.7206 159.159 23.15C157.993 23.5793 157.012 24.2309 156.215 25.1049C155.433 25.9789 154.95 27.0906 154.766 28.4399L152.42 45H150.787Z" fill="black"/>
<path d="M134.721 45.4599C132.789 45.4599 131.156 44.9923 129.822 44.0569C128.488 43.1063 127.53 41.7263 126.947 39.917C126.38 38.1076 126.28 35.9073 126.648 33.3159C127.016 30.6939 127.706 28.4476 128.718 26.5769C129.73 24.6909 131.01 23.2496 132.559 22.253C134.123 21.2563 135.917 20.7579 137.941 20.7579C139.842 20.7579 141.399 21.2103 142.61 22.1149C143.837 23.0196 144.688 24.3306 145.163 26.0479C145.638 27.7499 145.7 29.8199 145.347 32.2579L145.186 33.5459H128.419C128.174 35.3399 128.22 37.0113 128.557 38.56C128.894 40.0933 129.584 41.3353 130.627 42.2859C131.67 43.2366 133.119 43.712 134.974 43.712C136.722 43.712 138.278 43.2596 139.643 42.3549C141.008 41.4503 141.928 40.216 142.403 38.652H144.197C143.691 40.1853 142.94 41.458 141.943 42.47C140.962 43.482 139.842 44.2333 138.585 44.7239C137.328 45.2146 136.04 45.4599 134.721 45.4599ZM128.695 31.798H143.645C143.906 30.0346 143.867 28.4553 143.53 27.0599C143.208 25.6493 142.564 24.5376 141.598 23.7249C140.632 22.9123 139.321 22.5059 137.665 22.5059C135.856 22.5059 134.322 22.9736 133.065 23.9089C131.808 24.8289 130.811 26.002 130.075 27.4279C129.354 28.854 128.894 30.3106 128.695 31.798Z" fill="black"/>
<path d="M107.742 45.46C106.362 45.46 105.066 45.276 103.855 44.908C102.659 44.5246 101.601 43.9726 100.681 43.2519C99.761 42.5159 99.0327 41.619 98.496 40.561C97.9747 39.4876 97.691 38.2533 97.645 36.858H99.508C99.6307 38.3606 100.083 39.618 100.865 40.63C101.647 41.642 102.659 42.401 103.901 42.907C105.143 43.413 106.5 43.666 107.972 43.666C109.735 43.666 111.322 43.3823 112.733 42.8149C114.144 42.2323 115.294 41.435 116.183 40.423C117.072 39.411 117.601 38.2533 117.77 36.95C117.923 35.7693 117.87 34.719 117.609 33.799C117.348 32.8789 116.858 32.0969 116.137 31.4529C115.416 30.8089 114.435 30.3106 113.193 29.9579L106.707 28.118C104.56 27.5046 102.958 26.5846 101.9 25.358C100.857 24.1159 100.466 22.5059 100.727 20.528C100.957 18.7799 101.578 17.2159 102.59 15.836C103.602 14.4406 104.921 13.3443 106.546 12.547C108.171 11.7343 109.996 11.3279 112.02 11.3279C114.305 11.3279 116.152 11.7879 117.563 12.708C118.974 13.6126 119.97 14.7703 120.553 16.181C121.136 17.5916 121.327 19.0406 121.128 20.528H119.242C119.319 18.688 119.004 17.239 118.299 16.181C117.609 15.1076 116.674 14.3486 115.493 13.9039C114.328 13.4439 113.063 13.2139 111.698 13.2139C110.502 13.2139 109.229 13.4669 107.88 13.9729C106.546 14.4789 105.373 15.2686 104.361 16.342C103.349 17.4153 102.728 18.7953 102.498 20.4819C102.314 21.9079 102.621 23.0733 103.418 23.9779C104.231 24.8826 105.772 25.6723 108.041 26.3469L114.251 28.187C115.401 28.5243 116.344 28.992 117.08 29.59C117.831 30.1726 118.406 30.8473 118.805 31.614C119.219 32.3806 119.48 33.2086 119.587 34.0979C119.694 34.9873 119.687 35.9073 119.564 36.858C119.365 38.422 118.782 39.8556 117.816 41.159C116.865 42.4623 115.547 43.5049 113.86 44.2869C112.173 45.0689 110.134 45.46 107.742 45.46Z" fill="black"/>
<path d="M193.286 53.7419H216.01L215.642 60.9179H200.14L199.657 66.438C200.991 66.07 202.118 65.7863 203.038 65.5869C203.973 65.3876 205.024 65.2879 206.189 65.2879C208.596 65.2879 210.705 65.7173 212.514 66.576C214.339 67.4346 215.757 68.6766 216.769 70.3019C217.796 71.9119 218.31 73.8593 218.31 76.144C218.31 78.5206 217.75 80.56 216.631 82.262C215.527 83.9486 213.948 85.2443 211.893 86.1489C209.838 87.0536 207.393 87.506 204.556 87.506C202.256 87.506 200.117 87.1916 198.139 86.563C196.161 85.9343 194.436 85.0833 192.964 84.0099C191.492 82.9213 190.342 81.6946 189.514 80.3299L196.184 75.822C196.843 76.6653 197.503 77.4396 198.162 78.145C198.837 78.8503 199.596 79.4176 200.439 79.847C201.298 80.261 202.325 80.4679 203.521 80.4679C205.162 80.4679 206.48 80.077 207.477 79.295C208.489 78.513 208.995 77.57 208.995 76.466C208.995 75.776 208.788 75.1166 208.374 74.488C207.96 73.8593 207.354 73.3533 206.557 72.9699C205.775 72.5713 204.801 72.3719 203.636 72.3719C203.161 72.3719 202.708 72.4103 202.279 72.487C201.85 72.5636 201.382 72.694 200.876 72.878C200.385 73.0466 199.803 73.2766 199.128 73.5679C198.821 73.7059 198.607 73.7749 198.484 73.7749C198.361 73.7596 198.131 73.6753 197.794 73.5219L191.745 70.256L193.286 53.7419Z" fill="black"/>
<path d="M159.203 87V81.02C159.203 79.3486 159.51 77.9073 160.123 76.696C160.752 75.4693 161.58 74.4113 162.607 73.5219C163.635 72.6173 164.762 71.8353 165.988 71.1759C167.215 70.5166 168.442 69.9186 169.668 69.382C170.895 68.83 172.022 68.2933 173.049 67.7719C174.077 67.2506 174.897 66.6909 175.51 66.0929C176.139 65.4796 176.453 64.7666 176.453 63.9539C176.453 62.9573 176.108 62.137 175.418 61.493C174.728 60.8336 173.77 60.5039 172.543 60.5039C171.332 60.5039 170.213 60.8719 169.185 61.6079C168.158 62.3439 167.468 63.6319 167.115 65.4719H158.697C158.697 63.1719 159.203 61.1019 160.215 59.2619C161.243 57.4219 162.791 55.9653 164.861 54.8919C166.931 53.8186 169.553 53.2819 172.727 53.2819C175.457 53.2819 177.795 53.7266 179.742 54.6159C181.705 55.5053 183.208 56.7473 184.25 58.3419C185.308 59.9213 185.837 61.7613 185.837 63.8619C185.837 65.5179 185.538 66.944 184.94 68.14C184.342 69.3206 183.545 70.325 182.548 71.153C181.552 71.981 180.463 72.694 179.282 73.292C178.102 73.8746 176.921 74.3959 175.74 74.8559C174.56 75.3159 173.471 75.7683 172.474 76.213C171.478 76.6576 170.68 77.1483 170.082 77.685C169.484 78.2216 169.185 78.8733 169.185 79.64H185.607V87H159.203Z" fill="black"/>
<path d="M141.387 53.2819C145.665 53.2819 149 54.7923 151.392 57.813C153.8 60.8183 155.003 65.0273 155.003 70.4399C155.003 75.8219 153.823 80.0156 151.461 83.021C149.1 86.011 145.742 87.506 141.387 87.506C137.017 87.506 133.636 86.011 131.244 83.021C128.852 80.0156 127.656 75.8219 127.656 70.4399C127.656 66.8366 128.201 63.7546 129.289 61.194C130.393 58.6333 131.965 56.6783 134.004 55.3289C136.059 53.9643 138.52 53.2819 141.387 53.2819ZM141.341 80.376C142.982 80.376 144.124 79.64 144.768 78.168C145.412 76.6806 145.734 74.1199 145.734 70.4859C145.734 66.7293 145.405 64.069 144.745 62.505C144.086 60.9256 142.951 60.1359 141.341 60.1359C139.716 60.1359 138.566 60.9333 137.891 62.528C137.232 64.1073 136.902 66.7599 136.902 70.4859C136.902 74.0893 137.232 76.6423 137.891 78.145C138.551 79.6323 139.701 80.376 141.341 80.376Z" fill="black"/>
<path d="M97.346 87V81.02C97.346 79.3486 97.6527 77.9073 98.266 76.696C98.8947 75.4693 99.7227 74.4113 100.75 73.5219C101.777 72.6173 102.904 71.8353 104.131 71.1759C105.358 70.5166 106.584 69.9186 107.811 69.382C109.038 68.83 110.165 68.2933 111.192 67.7719C112.219 67.2506 113.04 66.6909 113.653 66.0929C114.282 65.4796 114.596 64.7666 114.596 63.9539C114.596 62.9573 114.251 62.137 113.561 61.493C112.871 60.8336 111.913 60.5039 110.686 60.5039C109.475 60.5039 108.355 60.8719 107.328 61.6079C106.301 62.3439 105.611 63.6319 105.258 65.4719H96.84C96.84 63.1719 97.346 61.1019 98.358 59.2619C99.3853 57.4219 100.934 55.9653 103.004 54.8919C105.074 53.8186 107.696 53.2819 110.87 53.2819C113.599 53.2819 115.938 53.7266 117.885 54.6159C119.848 55.5053 121.35 56.7473 122.393 58.3419C123.451 59.9213 123.98 61.7613 123.98 63.8619C123.98 65.5179 123.681 66.944 123.083 68.14C122.485 69.3206 121.688 70.325 120.691 71.153C119.694 71.981 118.606 72.694 117.425 73.292C116.244 73.8746 115.064 74.3959 113.883 74.8559C112.702 75.3159 111.614 75.7683 110.617 76.213C109.62 76.6576 108.823 77.1483 108.225 77.685C107.627 78.2216 107.328 78.8733 107.328 79.64H123.75V87H97.346Z" fill="black"/>
</svg>
