<svg width="80" height="80" viewBox="0 0 80 80" fill="none" xmlns="http://www.w3.org/2000/svg">
<path d="M39.9689 19.3923C28.6228 19.3923 19.4314 28.574 19.4314 39.898C19.4314 51.2264 28.6228 60.4081 39.9689 60.4081C51.3061 60.4081 60.5064 51.2264 60.5064 39.898C60.5064 28.574 51.3061 19.3923 39.9689 19.3923ZM39.9689 53.2224C32.5988 53.2224 26.6237 47.2566 26.6237 39.9024C26.6237 32.5438 32.5988 26.5824 39.9689 26.5824C47.339 26.5824 53.3052 32.5438 53.3052 39.9024C53.3052 47.2566 47.339 53.2224 39.9689 53.2224Z" fill="black"/>
<path d="M61.3239 23.4198C63.9687 23.4198 66.1128 21.2791 66.1128 18.6383C66.1128 15.9975 63.9687 13.8567 61.3239 13.8567C58.679 13.8567 56.5349 15.9975 56.5349 18.6383C56.5349 21.2791 58.679 23.4198 61.3239 23.4198Z" fill="black"/>
<path d="M77.8809 13.7769C75.7974 8.41428 71.5549 4.17387 66.1839 2.10246C63.0786 0.935906 59.7956 0.31049 56.4727 0.239521C52.1946 0.0532264 50.8396 0 39.9911 0C29.1426 0 27.7521 -4.47035e-07 23.5096 0.239521C20.1955 0.306054 16.9125 0.93147 13.8072 2.10246C8.43181 4.17387 4.18925 8.41428 2.11017 13.7769C0.941803 16.8818 0.315415 20.1552 0.248778 23.4731C0.0577521 27.7401 0 29.0929 0 39.929C0 50.7607 -2.98023e-08 52.1402 0.248778 56.385C0.315415 59.7028 0.941803 62.9763 2.11017 66.0856C4.19369 71.4438 8.43625 75.6842 13.8116 77.76C16.9036 78.9665 20.1866 79.6496 23.5184 79.756C27.7965 79.9423 29.1515 80 40 80C50.8485 80 52.239 80 56.4816 79.756C59.8001 79.6895 63.0831 79.0597 66.1928 77.8975C71.5638 75.8173 75.8063 71.5813 77.8898 66.2187C79.0582 63.1138 79.6846 59.8403 79.7512 56.5225C79.9422 52.2555 80 50.9026 80 40.0665C80 29.2304 80 27.8554 79.7512 23.6106C79.6935 20.2484 79.0715 16.9173 77.8809 13.7769ZM72.47 56.0568C72.4389 58.6117 71.9769 61.1444 71.0884 63.544C69.7334 67.0348 66.9747 69.7937 63.4829 71.1333C61.1062 72.016 58.6006 72.4773 56.064 72.5128C51.8436 72.7079 50.653 72.7567 39.8312 72.7567C29.0004 72.7567 27.8943 72.7567 23.594 72.5128C21.0662 72.4817 18.5518 72.016 16.1795 71.1333C12.6744 69.7982 9.89782 67.0393 8.54287 63.544C7.67215 61.1754 7.20124 58.6693 7.16126 56.1411C6.97023 51.9273 6.92581 50.7385 6.92581 39.9335C6.92581 29.124 6.92581 28.0195 7.16126 23.7214C7.19236 21.1666 7.65438 18.6383 8.54287 16.2386C9.89782 12.739 12.6744 9.98448 16.1795 8.64493C18.5518 7.76669 21.0662 7.30095 23.594 7.26547C27.8187 7.07474 29.0049 7.02151 39.8312 7.02151C50.6575 7.02151 51.7681 7.02151 56.064 7.26547C58.6006 7.29652 61.1062 7.76225 63.4829 8.64493C66.9747 9.98891 69.7334 12.7478 71.0884 16.2386C71.9591 18.6072 72.43 21.1133 72.47 23.6416C72.661 27.8598 72.7099 29.0441 72.7099 39.8536C72.7099 50.6587 72.7099 51.8208 72.5189 56.0612H72.47V56.0568Z" fill="black"/>
</svg>
